<?xml version="1.0" encoding="UTF-8" standalone="no"?>
<!DOCTYPE svg PUBLIC "-//W3C//DTD SVG 1.1//EN"
 "http://www.w3.org/Graphics/SVG/1.1/DTD/svg11.dtd">
<!-- Generated by graphviz version 2.43.0 (0)
 -->
<!-- Title: BombedField::explode Pages: 1 -->
<svg width="387pt" height="66pt"
 viewBox="0.00 0.00 387.00 66.00" xmlns="http://www.w3.org/2000/svg" xmlns:xlink="http://www.w3.org/1999/xlink">
<g id="graph0" class="graph" transform="scale(1 1) rotate(0) translate(4 62)">
<title>BombedField::explode</title>
<polygon fill="white" stroke="transparent" points="-4,4 -4,-62 383,-62 383,4 -4,4"/>
<!-- Node1 -->
<g id="node1" class="node">
<title>Node1</title>
<g id="a_node1"><a xlink:title="Triggers the explosion effect.">
<polygon fill="#bfbfbf" stroke="black" points="254,-19.5 254,-38.5 379,-38.5 379,-19.5 254,-19.5"/>
<text text-anchor="middle" x="316.5" y="-26.5" font-family="Helvetica,sans-Serif" font-size="10.00">BombedField::explode</text>
</a>
</g>
</g>
<!-- Node2 -->
<g id="node2" class="node">
<title>Node2</title>
<g id="a_node2"><a xlink:href="../../da/d43/classBombedField.html#a48a282d1c5a11b9970228a59b52f6efc" target="_top" xlink:title="Applies the bombed field&#39;s effect (ticks timer, may explode).">
<polygon fill="white" stroke="black" points="77,-38.5 77,-57.5 218,-57.5 218,-38.5 77,-38.5"/>
<text text-anchor="middle" x="147.5" y="-45.5" font-family="Helvetica,sans-Serif" font-size="10.00">BombedField::applyEffect</text>
</a>
</g>
</g>
<!-- Node1&#45;&gt;Node2 -->
<g id="edge1" class="edge">
<title>Node1&#45;&gt;Node2</title>
<path fill="none" stroke="midnightblue" d="M243.59,-37.18C235.14,-38.14 226.54,-39.12 218.12,-40.08"/>
<polygon fill="midnightblue" stroke="midnightblue" points="244.25,-40.63 253.79,-36.02 243.46,-33.67 244.25,-40.63"/>
</g>
<!-- Node3 -->
<g id="node3" class="node">
<title>Node3</title>
<g id="a_node3"><a xlink:href="../../d3/d36/functions_8cpp.html#ab211df54e293cd58fc266b4e02886762" target="_top" xlink:title=" ">
<polygon fill="white" stroke="black" points="84.5,-0.5 84.5,-19.5 210.5,-19.5 210.5,-0.5 84.5,-0.5"/>
<text text-anchor="middle" x="147.5" y="-7.5" font-family="Helvetica,sans-Serif" font-size="10.00">checkBombExplosions</text>
</a>
</g>
</g>
<!-- Node1&#45;&gt;Node3 -->
<g id="edge2" class="edge">
<title>Node1&#45;&gt;Node3</title>
<path fill="none" stroke="midnightblue" d="M243.74,-20.84C232.68,-19.58 221.34,-18.29 210.51,-17.06"/>
<polygon fill="midnightblue" stroke="midnightblue" points="243.46,-24.33 253.79,-21.98 244.25,-17.37 243.46,-24.33"/>
</g>
<!-- Node4 -->
<g id="node4" class="node">
<title>Node4</title>
<g id="a_node4"><a xlink:href="../../df/d0a/main_8cpp.html#ae66f6b31b5ad750f1fe042a706a4e3d4" target="_top" xlink:title=" ">
<polygon fill="white" stroke="black" points="0,-0.5 0,-19.5 41,-19.5 41,-0.5 0,-0.5"/>
<text text-anchor="middle" x="20.5" y="-7.5" font-family="Helvetica,sans-Serif" font-size="10.00">main</text>
</a>
</g>
</g>
<!-- Node3&#45;&gt;Node4 -->
<g id="edge3" class="edge">
<title>Node3&#45;&gt;Node4</title>
<path fill="none" stroke="midnightblue" d="M74.11,-10C61.99,-10 50.38,-10 41.17,-10"/>
<polygon fill="midnightblue" stroke="midnightblue" points="74.37,-13.5 84.37,-10 74.37,-6.5 74.37,-13.5"/>
</g>
</g>
</svg>
