<?xml version="1.0" encoding="UTF-8" standalone="no"?>
<!DOCTYPE svg PUBLIC "-//W3C//DTD SVG 1.1//EN"
 "http://www.w3.org/Graphics/SVG/1.1/DTD/svg11.dtd">
<!-- Generated by graphviz version 2.43.0 (0)
 -->
<!-- Title: checkVictory Pages: 1 -->
<svg width="233pt" height="104pt"
 viewBox="0.00 0.00 233.00 104.00" xmlns="http://www.w3.org/2000/svg" xmlns:xlink="http://www.w3.org/1999/xlink">
<g id="graph0" class="graph" transform="scale(1 1) rotate(0) translate(4 100)">
<title>checkVictory</title>
<polygon fill="white" stroke="transparent" points="-4,4 -4,-100 229,-100 229,4 -4,4"/>
<!-- Node1 -->
<g id="node1" class="node">
<title>Node1</title>
<g id="a_node1"><a xlink:title=" ">
<polygon fill="#bfbfbf" stroke="black" points="0,-38.5 0,-57.5 80,-57.5 80,-38.5 0,-38.5"/>
<text text-anchor="middle" x="40" y="-45.5" font-family="Helvetica,sans-Serif" font-size="10.00">checkVictory</text>
</a>
</g>
</g>
<!-- Node2 -->
<g id="node2" class="node">
<title>Node2</title>
<g id="a_node2"><a xlink:href="../../d2/d4b/classPlayer.html#aba42f377d067adc41cbc43e679b6349c" target="_top" xlink:title="Gets the player&#39;s current mana.">
<polygon fill="white" stroke="black" points="122.5,-76.5 122.5,-95.5 218.5,-95.5 218.5,-76.5 122.5,-76.5"/>
<text text-anchor="middle" x="170.5" y="-83.5" font-family="Helvetica,sans-Serif" font-size="10.00">Player::getMana</text>
</a>
</g>
</g>
<!-- Node1&#45;&gt;Node2 -->
<g id="edge1" class="edge">
<title>Node1&#45;&gt;Node2</title>
<path fill="none" stroke="midnightblue" d="M73.43,-57.59C89.71,-62.4 109.64,-68.3 127.12,-73.47"/>
<polygon fill="midnightblue" stroke="midnightblue" points="126.5,-76.93 137.08,-76.41 128.49,-70.22 126.5,-76.93"/>
</g>
<!-- Node3 -->
<g id="node3" class="node">
<title>Node3</title>
<g id="a_node3"><a xlink:href="../../d8/d05/classFortress.html#ad7937ba8e96ff5251972400eff0b73b5" target="_top" xlink:title="Gets the owner of the fortress.">
<polygon fill="white" stroke="black" points="116,-38.5 116,-57.5 225,-57.5 225,-38.5 116,-38.5"/>
<text text-anchor="middle" x="170.5" y="-45.5" font-family="Helvetica,sans-Serif" font-size="10.00">Fortress::getOwner</text>
</a>
</g>
</g>
<!-- Node1&#45;&gt;Node3 -->
<g id="edge2" class="edge">
<title>Node1&#45;&gt;Node3</title>
<path fill="none" stroke="midnightblue" d="M80.25,-48C88.32,-48 97,-48 105.68,-48"/>
<polygon fill="midnightblue" stroke="midnightblue" points="105.82,-51.5 115.82,-48 105.82,-44.5 105.82,-51.5"/>
</g>
<!-- Node4 -->
<g id="node4" class="node">
<title>Node4</title>
<g id="a_node4"><a xlink:href="../../df/dd9/classUnit.html#a72e700f28797f2c1709e03b2b7828814" target="_top" xlink:title="Returns true if the unit is controlled by the player.">
<polygon fill="white" stroke="black" points="126,-0.5 126,-19.5 215,-19.5 215,-0.5 126,-0.5"/>
<text text-anchor="middle" x="170.5" y="-7.5" font-family="Helvetica,sans-Serif" font-size="10.00">Unit::getPlayer</text>
</a>
</g>
</g>
<!-- Node1&#45;&gt;Node4 -->
<g id="edge3" class="edge">
<title>Node1&#45;&gt;Node4</title>
<path fill="none" stroke="midnightblue" d="M73.43,-38.41C89.71,-33.6 109.64,-27.7 127.12,-22.53"/>
<polygon fill="midnightblue" stroke="midnightblue" points="128.49,-25.78 137.08,-19.59 126.5,-19.07 128.49,-25.78"/>
</g>
</g>
</svg>
