<?xml version="1.0" encoding="UTF-8" standalone="no"?>
<!DOCTYPE svg PUBLIC "-//W3C//DTD SVG 1.1//EN"
 "http://www.w3.org/Graphics/SVG/1.1/DTD/svg11.dtd">
<!-- Generated by graphviz version 2.43.0 (0)
 -->
<!-- Title: attack Pages: 1 -->
<!--zoomable 645 -->
<svg id="main" version="1.1" xmlns="http://www.w3.org/2000/svg" xmlns:xlink="http://www.w3.org/1999/xlink" xml:space="preserve" onload="init(evt)">
<style type="text/css"><![CDATA[
.edge:hover path { stroke: red; }
.edge:hover polygon { stroke: red; fill: red; }
]]></style>
<script type="text/javascript"><![CDATA[
var edges = document.getElementsByTagName('g');
if (edges && edges.length) {
  for (var i=0;i<edges.length;i++) {
    if (edges[i].id.substr(0,4)=='edge') {
      edges[i].setAttribute('class','edge');
    }
  }
}
]]></script>
        <defs>
                <circle id="rim" cx="0" cy="0" r="7"/>
                <circle id="rim2" cx="0" cy="0" r="3.5"/>
                <g id="zoomPlus">
                        <use xlink:href="#rim" fill="#404040">
                                <set attributeName="fill" to="#808080" begin="zoomplus.mouseover" end="zoomplus.mouseout"/>
                        </use>
                        <path d="M-4,0h8M0,-4v8" fill="none" stroke="white" stroke-width="1.5" pointer-events="none"/>
                </g>
                <g id="zoomMin">
                        <use xlink:href="#rim" fill="#404040">
                                <set attributeName="fill" to="#808080" begin="zoomminus.mouseover" end="zoomminus.mouseout"/>
                        </use>
                        <path d="M-4,0h8" fill="none" stroke="white" stroke-width="1.5" pointer-events="none"/>
                </g>
                <g id="dirArrow">
                        <path fill="none" stroke="white" stroke-width="1.5" d="M0,-3.0v7 M-2.5,-0.5L0,-3.0L2.5,-0.5"/>
                </g>
               <g id="resetDef">
                       <use xlink:href="#rim2" fill="#404040">
                               <set attributeName="fill" to="#808080" begin="reset.mouseover" end="reset.mouseout"/>
                       </use>
               </g>
        </defs>

<script type="text/javascript">
var viewWidth = 546;
var viewHeight = 645;
var sectionId = 'dynsection-4';
</script>
<script xlink:href="../../svgpan.js"/>
<svg id="graph" class="graph">
<g id="viewport">
<title>attack</title>
<polygon fill="white" stroke="transparent" points="-4,4 -4,-641.38 542,-641.38 542,4 -4,4"/>
<!-- Node1 -->
<g id="node1" class="node">
<title>Node1</title>
<g id="a_node1"><a xlink:title=" ">
<polygon fill="#bfbfbf" stroke="black" points="0,-247.5 0,-266.5 47,-266.5 47,-247.5 0,-247.5"/>
<text text-anchor="middle" x="23.5" y="-254.5" font-family="Helvetica,sans-Serif" font-size="10.00">attack</text>
</a>
</g>
</g>
<!-- Node2 -->
<g id="node2" class="node">
<title>Node2</title>
<g id="a_node2"><a xlink:href="../../d3/d36/functions_8cpp.html#a43f0126154376c48e09ec7497e5af839" target="_top" xlink:title=" ">
<polygon fill="white" stroke="black" points="107,-361.5 107,-380.5 192,-380.5 192,-361.5 107,-361.5"/>
<text text-anchor="middle" x="149.5" y="-368.5" font-family="Helvetica,sans-Serif" font-size="10.00">applyDamage</text>
</a>
</g>
</g>
<!-- Node1&#45;&gt;Node2 -->
<g id="edge1" class="edge">
<title>Node1&#45;&gt;Node2</title>
<path fill="none" stroke="midnightblue" d="M30.91,-266.5C40.92,-280.89 61.36,-308.59 83,-328 94.9,-338.67 109.67,-348.61 122.17,-356.23"/>
<polygon fill="midnightblue" stroke="midnightblue" points="120.41,-359.26 130.8,-361.35 123.99,-353.24 120.41,-359.26"/>
</g>
<!-- Node3 -->
<g id="node3" class="node">
<title>Node3</title>
<g id="a_node3"><a xlink:href="../../df/dd9/classUnit.html#a0e44c4741b8ce52687715dc82fdfaf23" target="_top" xlink:title="Gets the unit&#39;s current health.">
<polygon fill="white" stroke="black" points="254,-456.5 254,-475.5 381,-475.5 381,-456.5 254,-456.5"/>
<text text-anchor="middle" x="317.5" y="-463.5" font-family="Helvetica,sans-Serif" font-size="10.00">Unit::getCurrentHealth</text>
</a>
</g>
</g>
<!-- Node1&#45;&gt;Node3 -->
<g id="edge19" class="edge">
<title>Node1&#45;&gt;Node3</title>
<path fill="none" stroke="midnightblue" d="M25.97,-266.6C30.21,-290.89 44.66,-355.3 83,-390 127.45,-430.23 193.53,-449.19 244.05,-458.12"/>
<polygon fill="midnightblue" stroke="midnightblue" points="243.5,-461.57 253.94,-459.77 244.66,-454.67 243.5,-461.57"/>
</g>
<!-- Node4 -->
<g id="node4" class="node">
<title>Node4</title>
<g id="a_node4"><a xlink:href="../../df/dd9/classUnit.html#a0497994e384db5c080ec78e9b645fa40" target="_top" xlink:title="Gets the unit&#39;s name.">
<polygon fill="white" stroke="black" points="434.5,-513.5 434.5,-532.5 522.5,-532.5 522.5,-513.5 434.5,-513.5"/>
<text text-anchor="middle" x="478.5" y="-520.5" font-family="Helvetica,sans-Serif" font-size="10.00">Unit::getName</text>
</a>
</g>
</g>
<!-- Node1&#45;&gt;Node4 -->
<g id="edge22" class="edge">
<title>Node1&#45;&gt;Node4</title>
<path fill="none" stroke="midnightblue" d="M24.84,-266.51C26.76,-314.34 37.8,-527.93 83,-572 178.85,-665.46 256.73,-643.48 383,-599 416.04,-587.36 446.05,-558.75 463.01,-540.14"/>
<polygon fill="midnightblue" stroke="midnightblue" points="465.65,-542.44 469.65,-532.63 460.41,-537.8 465.65,-542.44"/>
</g>
<!-- Node5 -->
<g id="node5" class="node">
<title>Node5</title>
<g id="a_node5"><a xlink:href="../../d8/d05/classFortress.html#a910fc391be59542b1ead1c96e997cd8a" target="_top" xlink:title="Gets the current strength of the fortress.">
<polygon fill="white" stroke="black" points="419,-304.5 419,-323.5 538,-323.5 538,-304.5 419,-304.5"/>
<text text-anchor="middle" x="478.5" y="-311.5" font-family="Helvetica,sans-Serif" font-size="10.00">Fortress::getStrength</text>
</a>
</g>
</g>
<!-- Node1&#45;&gt;Node5 -->
<g id="edge24" class="edge">
<title>Node1&#45;&gt;Node5</title>
<path fill="none" stroke="midnightblue" d="M45.75,-266.55C56.67,-271.05 70.31,-276.07 83,-279 195.04,-304.89 329.06,-311.89 408.52,-313.63"/>
<polygon fill="midnightblue" stroke="midnightblue" points="408.82,-317.14 418.89,-313.83 408.96,-310.14 408.82,-317.14"/>
</g>
<!-- Node6 -->
<g id="node6" class="node">
<title>Node6</title>
<g id="a_node6"><a xlink:href="../../d7/d24/classField.html#a726868d72ad77d531e0dcf0969b81091" target="_top" xlink:title="Get the unit on this field.">
<polygon fill="white" stroke="black" points="437.5,-228.5 437.5,-247.5 519.5,-247.5 519.5,-228.5 437.5,-228.5"/>
<text text-anchor="middle" x="478.5" y="-235.5" font-family="Helvetica,sans-Serif" font-size="10.00">Field::getUnit</text>
</a>
</g>
</g>
<!-- Node1&#45;&gt;Node6 -->
<g id="edge25" class="edge">
<title>Node1&#45;&gt;Node6</title>
<path fill="none" stroke="midnightblue" d="M47.32,-252.85C88.19,-245.64 176.64,-231.11 252,-226 310.09,-222.06 324.89,-222.33 383,-226 397.34,-226.91 412.84,-228.58 427.05,-230.4"/>
<polygon fill="midnightblue" stroke="midnightblue" points="426.77,-233.89 437.14,-231.74 427.69,-226.95 426.77,-233.89"/>
</g>
<!-- Node9 -->
<g id="node9" class="node">
<title>Node9</title>
<g id="a_node9"><a xlink:href="../../d3/d36/functions_8cpp.html#ae92c15badcbeac5edc544eec40902bac" target="_top" xlink:title=" ">
<polygon fill="white" stroke="black" points="252,-266.5 252,-285.5 383,-285.5 383,-266.5 252,-266.5"/>
<text text-anchor="middle" x="317.5" y="-273.5" font-family="Helvetica,sans-Serif" font-size="10.00">updateFortressStrength</text>
</a>
</g>
</g>
<!-- Node1&#45;&gt;Node9 -->
<g id="edge28" class="edge">
<title>Node1&#45;&gt;Node9</title>
<path fill="none" stroke="midnightblue" d="M47.41,-258.49C88.76,-261.18 177.53,-266.96 241.82,-271.14"/>
<polygon fill="midnightblue" stroke="midnightblue" points="241.72,-274.64 251.92,-271.8 242.17,-267.66 241.72,-274.64"/>
</g>
<!-- Node11 -->
<g id="node11" class="node">
<title>Node11</title>
<g id="a_node11"><a xlink:href="../../d7/d24/classField.html#a454ca5b8269657dc01cd611eceb3d397" target="_top" xlink:title="Apply the field&#39;s effect (e.g., mana generation, damage) to the board.">
<polygon fill="white" stroke="black" points="99,-190.5 99,-209.5 200,-209.5 200,-190.5 99,-190.5"/>
<text text-anchor="middle" x="149.5" y="-197.5" font-family="Helvetica,sans-Serif" font-size="10.00">Field::applyEffect</text>
</a>
</g>
</g>
<!-- Node1&#45;&gt;Node11 -->
<g id="edge13" class="edge">
<title>Node1&#45;&gt;Node11</title>
<path fill="none" stroke="midnightblue" d="M40.03,-247.32C51.61,-240.33 67.97,-230.94 83,-224 91.56,-220.05 100.97,-216.28 109.92,-212.95"/>
<polygon fill="midnightblue" stroke="midnightblue" points="111.18,-216.22 119.39,-209.52 108.8,-209.64 111.18,-216.22"/>
</g>
<!-- Node12 -->
<g id="node12" class="node">
<title>Node12</title>
<g id="a_node12"><a xlink:href="../../da/def/classInfantry.html#a05b6abbf09ed604fda5c276588ccf0a8" target="_top" xlink:title="Performs a counter&#45;attack against an attacker.">
<polygon fill="white" stroke="black" points="85.5,-504.5 85.5,-523.5 213.5,-523.5 213.5,-504.5 85.5,-504.5"/>
<text text-anchor="middle" x="149.5" y="-511.5" font-family="Helvetica,sans-Serif" font-size="10.00">Infantry::counterAttack</text>
</a>
</g>
</g>
<!-- Node1&#45;&gt;Node12 -->
<g id="edge14" class="edge">
<title>Node1&#45;&gt;Node12</title>
<path fill="none" stroke="midnightblue" d="M25.64,-266.58C29.51,-296.09 44.09,-387.38 83,-451 94.42,-469.68 112.71,-486.62 127.06,-498.22"/>
<polygon fill="midnightblue" stroke="midnightblue" points="124.94,-501 134.97,-504.4 129.25,-495.48 124.94,-501"/>
</g>
<!-- Node13 -->
<g id="node13" class="node">
<title>Node13</title>
<g id="a_node13"><a xlink:href="../../df/dd9/classUnit.html#a0062c5fab5677c6b47e1d881b4dcc53c" target="_top" xlink:title="Gets the unit&#39;s damage value.">
<polygon fill="white" stroke="black" points="267.5,-570.5 267.5,-589.5 367.5,-589.5 367.5,-570.5 267.5,-570.5"/>
<text text-anchor="middle" x="317.5" y="-577.5" font-family="Helvetica,sans-Serif" font-size="10.00">Unit::getDamage</text>
</a>
</g>
</g>
<!-- Node1&#45;&gt;Node13 -->
<g id="edge20" class="edge">
<title>Node1&#45;&gt;Node13</title>
<path fill="none" stroke="midnightblue" d="M25.16,-266.75C28.39,-311.22 43.92,-494.32 83,-533 128.46,-578 204.24,-585.78 257.09,-584.89"/>
<polygon fill="midnightblue" stroke="midnightblue" points="257.45,-588.38 267.34,-584.6 257.25,-581.38 257.45,-588.38"/>
</g>
<!-- Node14 -->
<g id="node14" class="node">
<title>Node14</title>
<g id="a_node14"><a xlink:href="../../df/dd9/classUnit.html#a8856896cc73b342fec2cd3e8079e8e6a" target="_top" xlink:title="Gets the unit&#39;s attack distance.">
<polygon fill="white" stroke="black" points="83,-152.5 83,-171.5 216,-171.5 216,-152.5 83,-152.5"/>
<text text-anchor="middle" x="149.5" y="-159.5" font-family="Helvetica,sans-Serif" font-size="10.00">Unit::getAttackDistance</text>
</a>
</g>
</g>
<!-- Node1&#45;&gt;Node14 -->
<g id="edge18" class="edge">
<title>Node1&#45;&gt;Node14</title>
<path fill="none" stroke="midnightblue" d="M29.22,-247.5C37.71,-231.36 57.14,-198.64 83,-181 85.93,-179 89.06,-177.22 92.32,-175.61"/>
<polygon fill="midnightblue" stroke="midnightblue" points="93.93,-178.73 101.74,-171.57 91.17,-172.3 93.93,-178.73"/>
</g>
<!-- Node15 -->
<g id="node15" class="node">
<title>Node15</title>
<g id="a_node15"><a xlink:href="../../d7/d24/classField.html#a718edf661e92a18a81c1a434b8e9ba40" target="_top" xlink:title="Get the defense bonus provided by this field.">
<polygon fill="white" stroke="black" points="83.5,-114.5 83.5,-133.5 215.5,-133.5 215.5,-114.5 83.5,-114.5"/>
<text text-anchor="middle" x="149.5" y="-121.5" font-family="Helvetica,sans-Serif" font-size="10.00">Field::getDefenseBonus</text>
</a>
</g>
</g>
<!-- Node1&#45;&gt;Node15 -->
<g id="edge21" class="edge">
<title>Node1&#45;&gt;Node15</title>
<path fill="none" stroke="midnightblue" d="M26.66,-247.41C32.11,-225.5 48.5,-171.44 83,-143 85.15,-141.23 87.46,-139.62 89.89,-138.16"/>
<polygon fill="midnightblue" stroke="midnightblue" points="91.72,-141.15 99.06,-133.51 88.56,-134.91 91.72,-141.15"/>
</g>
<!-- Node16 -->
<g id="node16" class="node">
<title>Node16</title>
<g id="a_node16"><a xlink:href="../../df/dd9/classUnit.html#a72e700f28797f2c1709e03b2b7828814" target="_top" xlink:title="Returns true if the unit is controlled by the player.">
<polygon fill="white" stroke="black" points="105,-76.5 105,-95.5 194,-95.5 194,-76.5 105,-76.5"/>
<text text-anchor="middle" x="149.5" y="-83.5" font-family="Helvetica,sans-Serif" font-size="10.00">Unit::getPlayer</text>
</a>
</g>
</g>
<!-- Node1&#45;&gt;Node16 -->
<g id="edge23" class="edge">
<title>Node1&#45;&gt;Node16</title>
<path fill="none" stroke="midnightblue" d="M25.33,-247.17C28.14,-220.26 39.68,-144.78 83,-105 86.62,-101.67 90.8,-98.92 95.25,-96.65"/>
<polygon fill="midnightblue" stroke="midnightblue" points="96.85,-99.77 104.68,-92.64 94.11,-93.33 96.85,-99.77"/>
</g>
<!-- Node17 -->
<g id="node17" class="node">
<title>Node17</title>
<g id="a_node17"><a xlink:href="../../df/dd9/classUnit.html#a4d3fd62e52d7c275c5a4b416b03e2998" target="_top" xlink:title="Gets the unit&#39;s current will points.">
<polygon fill="white" stroke="black" points="111,-38.5 111,-57.5 188,-57.5 188,-38.5 111,-38.5"/>
<text text-anchor="middle" x="149.5" y="-45.5" font-family="Helvetica,sans-Serif" font-size="10.00">Unit::getWill</text>
</a>
</g>
</g>
<!-- Node1&#45;&gt;Node17 -->
<g id="edge26" class="edge">
<title>Node1&#45;&gt;Node17</title>
<path fill="none" stroke="midnightblue" d="M24.46,-247.08C24.9,-215.85 30.59,-118.56 83,-67 88.05,-62.03 94.31,-58.35 100.95,-55.62"/>
<polygon fill="midnightblue" stroke="midnightblue" points="102.49,-58.8 110.84,-52.27 100.24,-52.17 102.49,-58.8"/>
</g>
<!-- Node18 -->
<g id="node18" class="node">
<title>Node18</title>
<g id="a_node18"><a xlink:href="../../df/dd9/classUnit.html#a207c7fe4b9d30af2446bb8af0a127c22" target="_top" xlink:title="Sets the unit&#39;s will points.">
<polygon fill="white" stroke="black" points="111,-0.5 111,-19.5 188,-19.5 188,-0.5 111,-0.5"/>
<text text-anchor="middle" x="149.5" y="-7.5" font-family="Helvetica,sans-Serif" font-size="10.00">Unit::setWill</text>
</a>
</g>
</g>
<!-- Node1&#45;&gt;Node18 -->
<g id="edge27" class="edge">
<title>Node1&#45;&gt;Node18</title>
<path fill="none" stroke="midnightblue" d="M25.68,-247.46C30.71,-208.45 51.5,-61.5 83,-29 88.1,-23.74 94.56,-19.91 101.43,-17.13"/>
<polygon fill="midnightblue" stroke="midnightblue" points="102.57,-20.44 110.95,-13.95 100.36,-13.8 102.57,-20.44"/>
</g>
<!-- Node2&#45;&gt;Node3 -->
<g id="edge2" class="edge">
<title>Node2&#45;&gt;Node3</title>
<path fill="none" stroke="midnightblue" d="M162.05,-380.57C180.26,-395.29 217.15,-423.71 252,-442 259.68,-446.03 268.19,-449.71 276.44,-452.9"/>
<polygon fill="midnightblue" stroke="midnightblue" points="275.36,-456.23 285.95,-456.43 277.79,-449.67 275.36,-456.23"/>
</g>
<!-- Node2&#45;&gt;Node4 -->
<g id="edge3" class="edge">
<title>Node2&#45;&gt;Node4</title>
<path fill="none" stroke="midnightblue" d="M174.52,-380.58C194.97,-388.6 225.21,-400.11 252,-409 309.54,-428.09 329.22,-419.02 383,-447 413.29,-462.76 443.12,-489.05 460.93,-506.2"/>
<polygon fill="midnightblue" stroke="midnightblue" points="458.63,-508.86 468.22,-513.37 463.54,-503.87 458.63,-508.86"/>
</g>
<!-- Node2&#45;&gt;Node5 -->
<g id="edge4" class="edge">
<title>Node2&#45;&gt;Node5</title>
<path fill="none" stroke="midnightblue" d="M192.25,-363.72C247.98,-354.01 347.25,-336.7 412.74,-325.29"/>
<polygon fill="midnightblue" stroke="midnightblue" points="413.69,-328.67 422.95,-323.51 412.49,-321.78 413.69,-328.67"/>
</g>
<!-- Node2&#45;&gt;Node6 -->
<g id="edge5" class="edge">
<title>Node2&#45;&gt;Node6</title>
<path fill="none" stroke="midnightblue" d="M155.56,-361.46C168.25,-338.65 203.89,-281.06 252,-257 307.16,-229.42 379.47,-228.52 427.15,-231.95"/>
<polygon fill="midnightblue" stroke="midnightblue" points="426.98,-235.45 437.23,-232.76 427.54,-228.47 426.98,-235.45"/>
</g>
<!-- Node7 -->
<g id="node7" class="node">
<title>Node7</title>
<g id="a_node7"><a xlink:href="../../d7/d24/classField.html#aac940692dbfe1437aba7efc3a8903ea8" target="_top" xlink:title="Set the unit on this field.">
<polygon fill="white" stroke="black" points="277,-380.5 277,-399.5 358,-399.5 358,-380.5 277,-380.5"/>
<text text-anchor="middle" x="317.5" y="-387.5" font-family="Helvetica,sans-Serif" font-size="10.00">Field::setUnit</text>
</a>
</g>
</g>
<!-- Node2&#45;&gt;Node7 -->
<g id="edge6" class="edge">
<title>Node2&#45;&gt;Node7</title>
<path fill="none" stroke="midnightblue" d="M192.39,-375.79C214.98,-378.38 243,-381.59 266.7,-384.3"/>
<polygon fill="midnightblue" stroke="midnightblue" points="266.58,-387.81 276.91,-385.47 267.37,-380.85 266.58,-387.81"/>
</g>
<!-- Node8 -->
<g id="node8" class="node">
<title>Node8</title>
<g id="a_node8"><a xlink:href="../../df/dd9/classUnit.html#a43a426d4d87aebf07e2737e122bea210" target="_top" xlink:title="Applies damage to the unit.">
<polygon fill="white" stroke="black" points="265,-494.5 265,-513.5 370,-513.5 370,-494.5 265,-494.5"/>
<text text-anchor="middle" x="317.5" y="-501.5" font-family="Helvetica,sans-Serif" font-size="10.00">Unit::takeDamage</text>
</a>
</g>
</g>
<!-- Node2&#45;&gt;Node8 -->
<g id="edge7" class="edge">
<title>Node2&#45;&gt;Node8</title>
<path fill="none" stroke="midnightblue" d="M156.31,-380.58C170.1,-402.47 207.01,-456.49 252,-485 255.34,-487.12 258.93,-489.01 262.64,-490.7"/>
<polygon fill="midnightblue" stroke="midnightblue" points="261.47,-493.99 272.05,-494.48 264.08,-487.5 261.47,-493.99"/>
</g>
<!-- Node2&#45;&gt;Node9 -->
<g id="edge9" class="edge">
<title>Node2&#45;&gt;Node9</title>
<path fill="none" stroke="midnightblue" d="M167.33,-361.37C196.41,-344.72 256.25,-310.48 290.65,-290.8"/>
<polygon fill="midnightblue" stroke="midnightblue" points="292.68,-293.66 299.62,-285.66 289.21,-287.59 292.68,-293.66"/>
</g>
<!-- Node8&#45;&gt;Node4 -->
<g id="edge8" class="edge">
<title>Node8&#45;&gt;Node4</title>
<path fill="none" stroke="midnightblue" d="M370.12,-510.17C387.48,-512.24 406.87,-514.56 424.34,-516.65"/>
<polygon fill="midnightblue" stroke="midnightblue" points="424.04,-520.14 434.38,-517.85 424.87,-513.19 424.04,-520.14"/>
</g>
<!-- Node9&#45;&gt;Node5 -->
<g id="edge10" class="edge">
<title>Node9&#45;&gt;Node5</title>
<path fill="none" stroke="midnightblue" d="M358.62,-285.59C379.6,-290.6 405.48,-296.79 427.73,-302.11"/>
<polygon fill="midnightblue" stroke="midnightblue" points="427.13,-305.56 437.67,-304.48 428.75,-298.75 427.13,-305.56"/>
</g>
<!-- Node9&#45;&gt;Node6 -->
<g id="edge11" class="edge">
<title>Node9&#45;&gt;Node6</title>
<path fill="none" stroke="midnightblue" d="M358.62,-266.41C379.6,-261.4 405.48,-255.21 427.73,-249.89"/>
<polygon fill="midnightblue" stroke="midnightblue" points="428.75,-253.25 437.67,-247.52 427.13,-246.44 428.75,-253.25"/>
</g>
<!-- Node10 -->
<g id="node10" class="node">
<title>Node10</title>
<g id="a_node10"><a xlink:href="../../d8/d05/classFortress.html#a921a0af7f93cd89a395ab8f053382a2e" target="_top" xlink:title="Sets the strength of the fortress.">
<polygon fill="white" stroke="black" points="419.5,-266.5 419.5,-285.5 537.5,-285.5 537.5,-266.5 419.5,-266.5"/>
<text text-anchor="middle" x="478.5" y="-273.5" font-family="Helvetica,sans-Serif" font-size="10.00">Fortress::setStrength</text>
</a>
</g>
</g>
<!-- Node9&#45;&gt;Node10 -->
<g id="edge12" class="edge">
<title>Node9&#45;&gt;Node10</title>
<path fill="none" stroke="midnightblue" d="M383.17,-276C391.76,-276 400.59,-276 409.24,-276"/>
<polygon fill="midnightblue" stroke="midnightblue" points="409.28,-279.5 419.28,-276 409.28,-272.5 409.28,-279.5"/>
</g>
<!-- Node12&#45;&gt;Node4 -->
<g id="edge16" class="edge">
<title>Node12&#45;&gt;Node4</title>
<path fill="none" stroke="midnightblue" d="M213.52,-520.46C226.25,-521.52 239.54,-522.45 252,-523 310.78,-525.6 378.27,-525.15 423.97,-524.33"/>
<polygon fill="midnightblue" stroke="midnightblue" points="424.31,-527.82 434.25,-524.13 424.18,-520.83 424.31,-527.82"/>
</g>
<!-- Node12&#45;&gt;Node8 -->
<g id="edge17" class="edge">
<title>Node12&#45;&gt;Node8</title>
<path fill="none" stroke="midnightblue" d="M213.73,-510.19C227.17,-509.38 241.33,-508.53 254.71,-507.72"/>
<polygon fill="midnightblue" stroke="midnightblue" points="254.99,-511.21 264.77,-507.12 254.57,-504.22 254.99,-511.21"/>
</g>
<!-- Node12&#45;&gt;Node13 -->
<g id="edge15" class="edge">
<title>Node12&#45;&gt;Node13</title>
<path fill="none" stroke="midnightblue" d="M172.98,-523.58C193.49,-532.24 224.66,-545.26 252,-556 261.24,-559.63 271.29,-563.43 280.63,-566.92"/>
<polygon fill="midnightblue" stroke="midnightblue" points="279.46,-570.22 290.06,-570.41 281.9,-563.65 279.46,-570.22"/>
</g>
</g>
</svg>
        <g id="navigator" transform="translate(0 0)" fill="#404254">
                <rect fill="#f2f5e9" fill-opacity="0.5" stroke="#606060" stroke-width=".5" x="0" y="0" width="60" height="60"/>
                <use id="zoomplus" xlink:href="#zoomPlus" x="17" y="9" onmousedown="handleZoom(evt,'in')"/>
                <use id="zoomminus" xlink:href="#zoomMin" x="42" y="9" onmousedown="handleZoom(evt,'out')"/>
                <use id="reset" xlink:href="#resetDef" x="30" y="36" onmousedown="handleReset()"/>
                <g id="arrowUp" xlink:href="#dirArrow" transform="translate(30 24)" onmousedown="handlePan(0,-1)">
                  <use xlink:href="#rim" fill="#404040">
                        <set attributeName="fill" to="#808080" begin="arrowUp.mouseover" end="arrowUp.mouseout"/>
                  </use>
                  <path fill="none" stroke="white" stroke-width="1.5" d="M0,-3.0v7 M-2.5,-0.5L0,-3.0L2.5,-0.5"/>
                </g>
                <g id="arrowRight" xlink:href="#dirArrow" transform="rotate(90) translate(36 -43)" onmousedown="handlePan(1,0)">
                  <use xlink:href="#rim" fill="#404040">
                        <set attributeName="fill" to="#808080" begin="arrowRight.mouseover" end="arrowRight.mouseout"/>
                  </use>
                  <path fill="none" stroke="white" stroke-width="1.5" d="M0,-3.0v7 M-2.5,-0.5L0,-3.0L2.5,-0.5"/>
                </g>
                <g id="arrowDown" xlink:href="#dirArrow" transform="rotate(180) translate(-30 -48)" onmousedown="handlePan(0,1)">
                  <use xlink:href="#rim" fill="#404040">
                        <set attributeName="fill" to="#808080" begin="arrowDown.mouseover" end="arrowDown.mouseout"/>
                  </use>
                  <path fill="none" stroke="white" stroke-width="1.5" d="M0,-3.0v7 M-2.5,-0.5L0,-3.0L2.5,-0.5"/>
                </g>
                <g id="arrowLeft" xlink:href="#dirArrow" transform="rotate(270) translate(-36 17)" onmousedown="handlePan(-1,0)">
                  <use xlink:href="#rim" fill="#404040">
                        <set attributeName="fill" to="#808080" begin="arrowLeft.mouseover" end="arrowLeft.mouseout"/>
                  </use>
                  <path fill="none" stroke="white" stroke-width="1.5" d="M0,-3.0v7 M-2.5,-0.5L0,-3.0L2.5,-0.5"/>
                </g>
        </g>
        <svg viewBox="0 0 15 15" width="100%" height="30px" preserveAspectRatio="xMaxYMin meet">
         <g id="arrow_out" transform="scale(0.3 0.3)">
          <a xlink:href="functions_8h_acfc6ab57758c3db7e635b17b396796ba_cgraph_org.svg" target="_base">
           <rect id="button" ry="5" rx="5" y="6" x="6" height="38" width="38"
                fill="#f2f5e9" fill-opacity="0.5" stroke="#606060" stroke-width="1.0"/>
           <path id="arrow"
             d="M 11.500037,31.436501 C 11.940474,20.09759 22.043105,11.32322 32.158766,21.979434 L 37.068811,17.246167 C 37.068811,17.246167 37.088388,32 37.088388,32 L 22.160133,31.978069 C 22.160133,31.978069 26.997745,27.140456 26.997745,27.140456 C 18.528582,18.264221 13.291696,25.230495 11.500037,31.436501 z"
             style="fill:#404040;"/>
          </a>
         </g>
        </svg>
</svg>
