<?xml version="1.0" encoding="UTF-8" standalone="no"?>
<!DOCTYPE svg PUBLIC "-//W3C//DTD SVG 1.1//EN"
 "http://www.w3.org/Graphics/SVG/1.1/DTD/svg11.dtd">
<!-- Generated by graphviz version 2.43.0 (0)
 -->
<!-- Title: move Pages: 1 -->
<svg width="521pt" height="66pt"
 viewBox="0.00 0.00 521.00 66.00" xmlns="http://www.w3.org/2000/svg" xmlns:xlink="http://www.w3.org/1999/xlink">
<g id="graph0" class="graph" transform="scale(1 1) rotate(0) translate(4 62)">
<title>move</title>
<polygon fill="white" stroke="transparent" points="-4,4 -4,-62 517,-62 517,4 -4,4"/>
<!-- Node1 -->
<g id="node1" class="node">
<title>Node1</title>
<g id="a_node1"><a xlink:title=" ">
<polygon fill="#bfbfbf" stroke="black" points="469,-19.5 469,-38.5 513,-38.5 513,-19.5 469,-19.5"/>
<text text-anchor="middle" x="491" y="-26.5" font-family="Helvetica,sans-Serif" font-size="10.00">move</text>
</a>
</g>
</g>
<!-- Node2 -->
<g id="node2" class="node">
<title>Node2</title>
<g id="a_node2"><a xlink:href="../../d9/deb/getcommands_8cpp.html#a4ffff192321e79e17d14dc4a1af609a7" target="_top" xlink:title="Handles player commands during their turn.">
<polygon fill="white" stroke="black" points="211,-38.5 211,-57.5 330,-57.5 330,-38.5 211,-38.5"/>
<text text-anchor="middle" x="270.5" y="-45.5" font-family="Helvetica,sans-Serif" font-size="10.00">getPlayerCommands</text>
</a>
</g>
</g>
<!-- Node1&#45;&gt;Node2 -->
<g id="edge1" class="edge">
<title>Node1&#45;&gt;Node2</title>
<path fill="none" stroke="midnightblue" d="M458.55,-31.74C425.11,-34.64 371.47,-39.31 330.19,-42.9"/>
<polygon fill="midnightblue" stroke="midnightblue" points="458.99,-35.21 468.65,-30.86 458.39,-28.24 458.99,-35.21"/>
</g>
<!-- Node4 -->
<g id="node4" class="node">
<title>Node4</title>
<g id="a_node4"><a xlink:href="../../d0/d77/AI_8cpp.html#a9b86a4e2150c537c1cf7a3a6a2b01e7b" target="_top" xlink:title="Attempts to move the given AI unit.">
<polygon fill="white" stroke="black" points="366,-0.5 366,-19.5 433,-19.5 433,-0.5 366,-0.5"/>
<text text-anchor="middle" x="399.5" y="-7.5" font-family="Helvetica,sans-Serif" font-size="10.00">tryAIMove</text>
</a>
</g>
</g>
<!-- Node1&#45;&gt;Node4 -->
<g id="edge3" class="edge">
<title>Node1&#45;&gt;Node4</title>
<path fill="none" stroke="midnightblue" d="M458.75,-22.37C450.45,-20.6 441.47,-18.7 433.11,-16.92"/>
<polygon fill="midnightblue" stroke="midnightblue" points="458.28,-25.84 468.79,-24.5 459.73,-19 458.28,-25.84"/>
</g>
<!-- Node3 -->
<g id="node3" class="node">
<title>Node3</title>
<g id="a_node3"><a xlink:href="../../df/d0a/main_8cpp.html#ae66f6b31b5ad750f1fe042a706a4e3d4" target="_top" xlink:title=" ">
<polygon fill="white" stroke="black" points="0,-19.5 0,-38.5 41,-38.5 41,-19.5 0,-19.5"/>
<text text-anchor="middle" x="20.5" y="-26.5" font-family="Helvetica,sans-Serif" font-size="10.00">main</text>
</a>
</g>
</g>
<!-- Node2&#45;&gt;Node3 -->
<g id="edge2" class="edge">
<title>Node2&#45;&gt;Node3</title>
<path fill="none" stroke="midnightblue" d="M200.52,-42.71C146.5,-38.58 75.01,-33.1 41.04,-30.5"/>
<polygon fill="midnightblue" stroke="midnightblue" points="200.49,-46.22 210.73,-43.5 201.02,-39.24 200.49,-46.22"/>
</g>
<!-- Node5 -->
<g id="node5" class="node">
<title>Node5</title>
<g id="a_node5"><a xlink:href="../../d0/d77/AI_8cpp.html#a977b9434bdf2f1cb57f540e4098d1a57" target="_top" xlink:title="Performs the main AI logic for the AI player&#39;s turn.">
<polygon fill="white" stroke="black" points="250,-0.5 250,-19.5 291,-19.5 291,-0.5 250,-0.5"/>
<text text-anchor="middle" x="270.5" y="-7.5" font-family="Helvetica,sans-Serif" font-size="10.00">AIact</text>
</a>
</g>
</g>
<!-- Node4&#45;&gt;Node5 -->
<g id="edge4" class="edge">
<title>Node4&#45;&gt;Node5</title>
<path fill="none" stroke="midnightblue" d="M355.71,-10C333.81,-10 308.21,-10 291.04,-10"/>
<polygon fill="midnightblue" stroke="midnightblue" points="355.79,-13.5 365.79,-10 355.79,-6.5 355.79,-13.5"/>
</g>
<!-- Node6 -->
<g id="node6" class="node">
<title>Node6</title>
<g id="a_node6"><a xlink:href="../../d0/d77/AI_8cpp.html#ad90f841d71e5bae7186823d947a92551" target="_top" xlink:title="Handles AI commands during its turn.">
<polygon fill="white" stroke="black" points="77,-0.5 77,-19.5 175,-19.5 175,-0.5 77,-0.5"/>
<text text-anchor="middle" x="126" y="-7.5" font-family="Helvetica,sans-Serif" font-size="10.00">getAICommands</text>
</a>
</g>
</g>
<!-- Node5&#45;&gt;Node6 -->
<g id="edge5" class="edge">
<title>Node5&#45;&gt;Node6</title>
<path fill="none" stroke="midnightblue" d="M239.98,-10C221.25,-10 196.58,-10 175.07,-10"/>
<polygon fill="midnightblue" stroke="midnightblue" points="239.98,-13.5 249.98,-10 239.98,-6.5 239.98,-13.5"/>
</g>
<!-- Node6&#45;&gt;Node3 -->
<g id="edge6" class="edge">
<title>Node6&#45;&gt;Node3</title>
<path fill="none" stroke="midnightblue" d="M66.79,-20.69C57.53,-22.39 48.55,-24.03 41.06,-25.41"/>
<polygon fill="midnightblue" stroke="midnightblue" points="67.68,-24.08 76.89,-18.83 66.42,-17.2 67.68,-24.08"/>
</g>
</g>
</svg>
