<?xml version="1.0" encoding="UTF-8" standalone="no"?>
<!DOCTYPE svg PUBLIC "-//W3C//DTD SVG 1.1//EN"
 "http://www.w3.org/Graphics/SVG/1.1/DTD/svg11.dtd">
<!-- Generated by graphviz version 2.43.0 (0)
 -->
<!-- Title: tryAIEngineerBuildSpecific Pages: 1 -->
<svg width="506pt" height="389pt"
 viewBox="0.00 0.00 506.00 389.00" xmlns="http://www.w3.org/2000/svg" xmlns:xlink="http://www.w3.org/1999/xlink">
<g id="graph0" class="graph" transform="scale(1 1) rotate(0) translate(4 385)">
<title>tryAIEngineerBuildSpecific</title>
<polygon fill="white" stroke="transparent" points="-4,4 -4,-385 502,-385 502,4 -4,4"/>
<!-- Node1 -->
<g id="node1" class="node">
<title>Node1</title>
<g id="a_node1"><a xlink:title=" ">
<polygon fill="#bfbfbf" stroke="black" points="0,-171.5 0,-190.5 145,-190.5 145,-171.5 0,-171.5"/>
<text text-anchor="middle" x="72.5" y="-178.5" font-family="Helvetica,sans-Serif" font-size="10.00">tryAIEngineerBuildSpecific</text>
</a>
</g>
</g>
<!-- Node2 -->
<g id="node2" class="node">
<title>Node2</title>
<g id="a_node2"><a xlink:href="../../dc/d9b/classEngineer.html#ad4076b7f94e65fd55c68fc1cbd740533" target="_top" xlink:title="Builds a fortress at the specified coordinates.">
<polygon fill="white" stroke="black" points="200,-342.5 200,-361.5 335,-361.5 335,-342.5 200,-342.5"/>
<text text-anchor="middle" x="267.5" y="-349.5" font-family="Helvetica,sans-Serif" font-size="10.00">Engineer::createFortress</text>
</a>
</g>
</g>
<!-- Node1&#45;&gt;Node2 -->
<g id="edge1" class="edge">
<title>Node1&#45;&gt;Node2</title>
<path fill="none" stroke="midnightblue" d="M77.35,-190.71C88.7,-217.95 124.75,-295.59 181,-333 184.09,-335.06 187.38,-336.9 190.78,-338.54"/>
<polygon fill="midnightblue" stroke="midnightblue" points="189.47,-341.78 200.05,-342.44 192.19,-335.33 189.47,-341.78"/>
</g>
<!-- Node5 -->
<g id="node5" class="node">
<title>Node5</title>
<g id="a_node5"><a xlink:href="../../dc/d9b/classEngineer.html#a4259ec02bdc511cb22ebb20ab73354c7" target="_top" xlink:title="Builds a mana mine at the specified coordinates.">
<polygon fill="white" stroke="black" points="194,-304.5 194,-323.5 341,-323.5 341,-304.5 194,-304.5"/>
<text text-anchor="middle" x="267.5" y="-311.5" font-family="Helvetica,sans-Serif" font-size="10.00">Engineer::createManaMine</text>
</a>
</g>
</g>
<!-- Node1&#45;&gt;Node5 -->
<g id="edge4" class="edge">
<title>Node1&#45;&gt;Node5</title>
<path fill="none" stroke="midnightblue" d="M79.67,-190.78C94.3,-213.12 133.46,-267.99 181,-295 184.97,-297.26 189.19,-299.25 193.55,-301"/>
<polygon fill="midnightblue" stroke="midnightblue" points="192.65,-304.4 203.25,-304.47 195.01,-297.81 192.65,-304.4"/>
</g>
<!-- Node6 -->
<g id="node6" class="node">
<title>Node6</title>
<g id="a_node6"><a xlink:href="../../dc/d9b/classEngineer.html#a4f9b54503e8a0fd99ed35f6c78710c56" target="_top" xlink:title="Builds a trap (bombed field) at the specified coordinates.">
<polygon fill="white" stroke="black" points="209.5,-266.5 209.5,-285.5 325.5,-285.5 325.5,-266.5 209.5,-266.5"/>
<text text-anchor="middle" x="267.5" y="-273.5" font-family="Helvetica,sans-Serif" font-size="10.00">Engineer::createTrap</text>
</a>
</g>
</g>
<!-- Node1&#45;&gt;Node6 -->
<g id="edge5" class="edge">
<title>Node1&#45;&gt;Node6</title>
<path fill="none" stroke="midnightblue" d="M83.91,-190.55C102.15,-206.77 141.71,-239.6 181,-257 186.84,-259.59 193.06,-261.84 199.39,-263.79"/>
<polygon fill="midnightblue" stroke="midnightblue" points="198.8,-267.26 209.37,-266.62 200.71,-260.53 198.8,-267.26"/>
</g>
<!-- Node7 -->
<g id="node7" class="node">
<title>Node7</title>
<g id="a_node7"><a xlink:href="../../d0/d77/AI_8cpp.html#a718e4a44a7a14b0b80de798a5ece05c0" target="_top" xlink:title=" ">
<polygon fill="white" stroke="black" points="181,-228.5 181,-247.5 354,-247.5 354,-228.5 181,-228.5"/>
<text text-anchor="middle" x="267.5" y="-235.5" font-family="Helvetica,sans-Serif" font-size="10.00">findRandomAdjacentEmptyField</text>
</a>
</g>
</g>
<!-- Node1&#45;&gt;Node7 -->
<g id="edge6" class="edge">
<title>Node1&#45;&gt;Node7</title>
<path fill="none" stroke="midnightblue" d="M104.02,-190.59C125.51,-197.28 154.96,-206.35 181,-214 194.32,-217.91 208.85,-222.04 222.09,-225.75"/>
<polygon fill="midnightblue" stroke="midnightblue" points="221.34,-229.18 231.92,-228.5 223.23,-222.44 221.34,-229.18"/>
</g>
<!-- Node8 -->
<g id="node8" class="node">
<title>Node8</title>
<g id="a_node8"><a xlink:href="../../d7/d24/classField.html#a726868d72ad77d531e0dcf0969b81091" target="_top" xlink:title="Get the unit on this field.">
<polygon fill="white" stroke="black" points="403,-209.5 403,-228.5 485,-228.5 485,-209.5 403,-209.5"/>
<text text-anchor="middle" x="444" y="-216.5" font-family="Helvetica,sans-Serif" font-size="10.00">Field::getUnit</text>
</a>
</g>
</g>
<!-- Node1&#45;&gt;Node8 -->
<g id="edge9" class="edge">
<title>Node1&#45;&gt;Node8</title>
<path fill="none" stroke="midnightblue" d="M145.18,-188.37C217.94,-195.85 328.72,-207.25 392.67,-213.82"/>
<polygon fill="midnightblue" stroke="midnightblue" points="392.59,-217.33 402.9,-214.88 393.31,-210.37 392.59,-217.33"/>
</g>
<!-- Node9 -->
<g id="node9" class="node">
<title>Node9</title>
<g id="a_node9"><a xlink:href="../../d2/d4b/classPlayer.html#aba42f377d067adc41cbc43e679b6349c" target="_top" xlink:title="Gets the player&#39;s current mana.">
<polygon fill="white" stroke="black" points="219.5,-152.5 219.5,-171.5 315.5,-171.5 315.5,-152.5 219.5,-152.5"/>
<text text-anchor="middle" x="267.5" y="-159.5" font-family="Helvetica,sans-Serif" font-size="10.00">Player::getMana</text>
</a>
</g>
</g>
<!-- Node1&#45;&gt;Node9 -->
<g id="edge8" class="edge">
<title>Node1&#45;&gt;Node9</title>
<path fill="none" stroke="midnightblue" d="M145.09,-173.95C166.29,-171.87 189.21,-169.61 209.37,-167.62"/>
<polygon fill="midnightblue" stroke="midnightblue" points="209.72,-171.11 219.32,-166.64 209.03,-164.14 209.72,-171.11"/>
</g>
<!-- Node10 -->
<g id="node10" class="node">
<title>Node10</title>
<g id="a_node10"><a xlink:href="../../df/dd9/classUnit.html#a4d3fd62e52d7c275c5a4b416b03e2998" target="_top" xlink:title="Gets the unit&#39;s current will points.">
<polygon fill="white" stroke="black" points="229,-114.5 229,-133.5 306,-133.5 306,-114.5 229,-114.5"/>
<text text-anchor="middle" x="267.5" y="-121.5" font-family="Helvetica,sans-Serif" font-size="10.00">Unit::getWill</text>
</a>
</g>
</g>
<!-- Node1&#45;&gt;Node10 -->
<g id="edge10" class="edge">
<title>Node1&#45;&gt;Node10</title>
<path fill="none" stroke="midnightblue" d="M97.99,-171.39C119.6,-163.13 152.08,-151.29 181,-143 193.1,-139.53 206.32,-136.32 218.67,-133.56"/>
<polygon fill="midnightblue" stroke="midnightblue" points="219.77,-136.9 228.8,-131.35 218.28,-130.06 219.77,-136.9"/>
</g>
<!-- Node11 -->
<g id="node11" class="node">
<title>Node11</title>
<g id="a_node11"><a xlink:href="../../d2/d4b/classPlayer.html#a884dd5a4d9aa079a465adb44bebd13af" target="_top" xlink:title="Sets the player&#39;s mana.">
<polygon fill="white" stroke="black" points="220,-76.5 220,-95.5 315,-95.5 315,-76.5 220,-76.5"/>
<text text-anchor="middle" x="267.5" y="-83.5" font-family="Helvetica,sans-Serif" font-size="10.00">Player::setMana</text>
</a>
</g>
</g>
<!-- Node1&#45;&gt;Node11 -->
<g id="edge11" class="edge">
<title>Node1&#45;&gt;Node11</title>
<path fill="none" stroke="midnightblue" d="M83.91,-171.45C102.15,-155.23 141.71,-122.4 181,-105 190.07,-100.98 200.07,-97.78 209.94,-95.23"/>
<polygon fill="midnightblue" stroke="midnightblue" points="210.81,-98.62 219.73,-92.9 209.19,-91.81 210.81,-98.62"/>
</g>
<!-- Node12 -->
<g id="node12" class="node">
<title>Node12</title>
<g id="a_node12"><a xlink:href="../../d7/d24/classField.html#aac940692dbfe1437aba7efc3a8903ea8" target="_top" xlink:title="Set the unit on this field.">
<polygon fill="white" stroke="black" points="227,-38.5 227,-57.5 308,-57.5 308,-38.5 227,-38.5"/>
<text text-anchor="middle" x="267.5" y="-45.5" font-family="Helvetica,sans-Serif" font-size="10.00">Field::setUnit</text>
</a>
</g>
</g>
<!-- Node1&#45;&gt;Node12 -->
<g id="edge12" class="edge">
<title>Node1&#45;&gt;Node12</title>
<path fill="none" stroke="midnightblue" d="M79.67,-171.22C94.3,-148.88 133.46,-94.01 181,-67 191.85,-60.84 204.52,-56.67 216.74,-53.86"/>
<polygon fill="midnightblue" stroke="midnightblue" points="217.74,-57.23 226.84,-51.8 216.34,-50.37 217.74,-57.23"/>
</g>
<!-- Node13 -->
<g id="node13" class="node">
<title>Node13</title>
<g id="a_node13"><a xlink:href="../../df/dd9/classUnit.html#a207c7fe4b9d30af2446bb8af0a127c22" target="_top" xlink:title="Sets the unit&#39;s will points.">
<polygon fill="white" stroke="black" points="229,-0.5 229,-19.5 306,-19.5 306,-0.5 229,-0.5"/>
<text text-anchor="middle" x="267.5" y="-7.5" font-family="Helvetica,sans-Serif" font-size="10.00">Unit::setWill</text>
</a>
</g>
</g>
<!-- Node1&#45;&gt;Node13 -->
<g id="edge13" class="edge">
<title>Node1&#45;&gt;Node13</title>
<path fill="none" stroke="midnightblue" d="M77.35,-171.29C88.7,-144.05 124.75,-66.41 181,-29 192.2,-21.55 205.87,-16.98 218.96,-14.19"/>
<polygon fill="midnightblue" stroke="midnightblue" points="219.6,-17.63 228.81,-12.38 218.34,-10.75 219.6,-17.63"/>
</g>
<!-- Node3 -->
<g id="node3" class="node">
<title>Node3</title>
<g id="a_node3"><a xlink:href="../../df/dd9/classUnit.html#a72e700f28797f2c1709e03b2b7828814" target="_top" xlink:title="Returns true if the unit is controlled by the player.">
<polygon fill="white" stroke="black" points="399.5,-361.5 399.5,-380.5 488.5,-380.5 488.5,-361.5 399.5,-361.5"/>
<text text-anchor="middle" x="444" y="-368.5" font-family="Helvetica,sans-Serif" font-size="10.00">Unit::getPlayer</text>
</a>
</g>
</g>
<!-- Node2&#45;&gt;Node3 -->
<g id="edge2" class="edge">
<title>Node2&#45;&gt;Node3</title>
<path fill="none" stroke="midnightblue" d="M335.47,-359.29C353.22,-361.22 372.15,-363.29 389.11,-365.13"/>
<polygon fill="midnightblue" stroke="midnightblue" points="389.06,-368.65 399.38,-366.25 389.82,-361.69 389.06,-368.65"/>
</g>
<!-- Node4 -->
<g id="node4" class="node">
<title>Node4</title>
<g id="a_node4"><a xlink:href="../../d8/d05/classFortress.html#a6f9636ea613603c0552331f916bd7146" target="_top" xlink:title="Sets the owner of the fortress.">
<polygon fill="white" stroke="black" points="390,-323.5 390,-342.5 498,-342.5 498,-323.5 390,-323.5"/>
<text text-anchor="middle" x="444" y="-330.5" font-family="Helvetica,sans-Serif" font-size="10.00">Fortress::setOwner</text>
</a>
</g>
</g>
<!-- Node2&#45;&gt;Node4 -->
<g id="edge3" class="edge">
<title>Node2&#45;&gt;Node4</title>
<path fill="none" stroke="midnightblue" d="M335.47,-344.71C349.93,-343.13 365.18,-341.47 379.51,-339.91"/>
<polygon fill="midnightblue" stroke="midnightblue" points="380.19,-343.36 389.75,-338.8 379.43,-336.4 380.19,-343.36"/>
</g>
<!-- Node7&#45;&gt;Node8 -->
<g id="edge7" class="edge">
<title>Node7&#45;&gt;Node8</title>
<path fill="none" stroke="midnightblue" d="M354.22,-228.67C367.28,-227.24 380.39,-225.82 392.38,-224.51"/>
<polygon fill="midnightblue" stroke="midnightblue" points="393.03,-227.96 402.59,-223.4 392.27,-221 393.03,-227.96"/>
</g>
</g>
</svg>
