<?xml version="1.0" encoding="UTF-8" standalone="no"?>
<!DOCTYPE svg PUBLIC "-//W3C//DTD SVG 1.1//EN"
 "http://www.w3.org/Graphics/SVG/1.1/DTD/svg11.dtd">
<!-- Generated by graphviz version 2.43.0 (0)
 -->
<!-- Title: shieldedfield.h Pages: 1 -->
<svg width="1181pt" height="308pt"
 viewBox="0.00 0.00 1180.71 308.00" xmlns="http://www.w3.org/2000/svg" xmlns:xlink="http://www.w3.org/1999/xlink">
<g id="graph0" class="graph" transform="scale(1 1) rotate(0) translate(4 304)">
<title>shieldedfield.h</title>
<polygon fill="white" stroke="transparent" points="-4,4 -4,-304 1176.71,-304 1176.71,4 -4,4"/>
<!-- Node1 -->
<g id="node1" class="node">
<title>Node1</title>
<g id="a_node1"><a xlink:title=" ">
<polygon fill="#bfbfbf" stroke="black" points="300.21,-280.5 300.21,-299.5 388.21,-299.5 388.21,-280.5 300.21,-280.5"/>
<text text-anchor="middle" x="344.21" y="-287.5" font-family="Helvetica,sans-Serif" font-size="10.00">shieldedfield.h</text>
</a>
</g>
</g>
<!-- Node2 -->
<g id="node2" class="node">
<title>Node2</title>
<g id="a_node2"><a xlink:href="../../d0/d77/AI_8cpp.html" target="_top" xlink:title=" ">
<polygon fill="white" stroke="black" points="109.71,-112.5 109.71,-131.5 156.71,-131.5 156.71,-112.5 109.71,-112.5"/>
<text text-anchor="middle" x="133.21" y="-119.5" font-family="Helvetica,sans-Serif" font-size="10.00">AI.cpp</text>
</a>
</g>
</g>
<!-- Node1&#45;&gt;Node2 -->
<g id="edge1" class="edge">
<title>Node1&#45;&gt;Node2</title>
<path fill="none" stroke="midnightblue" d="M290.19,-280.53C205.15,-265.96 46.41,-233.28 14.21,-188 -11.98,-151.16 68.06,-133.02 109.71,-126.25"/>
<polygon fill="midnightblue" stroke="midnightblue" points="289.74,-284.01 300.18,-282.22 290.9,-277.11 289.74,-284.01"/>
</g>
<!-- Node3 -->
<g id="node3" class="node">
<title>Node3</title>
<g id="a_node3"><a xlink:href="../../d3/d36/functions_8cpp.html" target="_top" xlink:title=" ">
<polygon fill="white" stroke="black" points="23.21,-168.5 23.21,-187.5 105.21,-187.5 105.21,-168.5 23.21,-168.5"/>
<text text-anchor="middle" x="64.21" y="-175.5" font-family="Helvetica,sans-Serif" font-size="10.00">functions.cpp</text>
</a>
</g>
</g>
<!-- Node1&#45;&gt;Node3 -->
<g id="edge2" class="edge">
<title>Node1&#45;&gt;Node3</title>
<path fill="none" stroke="midnightblue" d="M312.61,-276.59C255.25,-254.05 135.36,-206.95 86.08,-187.59"/>
<polygon fill="midnightblue" stroke="midnightblue" points="311.66,-279.97 322.24,-280.37 314.21,-273.45 311.66,-279.97"/>
</g>
<!-- Node4 -->
<g id="node4" class="node">
<title>Node4</title>
<g id="a_node4"><a xlink:href="../../d8/d5c/functions_8h.html" target="_top" xlink:title=" ">
<polygon fill="white" stroke="black" points="398.71,-224.5 398.71,-243.5 469.71,-243.5 469.71,-224.5 398.71,-224.5"/>
<text text-anchor="middle" x="434.21" y="-231.5" font-family="Helvetica,sans-Serif" font-size="10.00">functions.h</text>
</a>
</g>
</g>
<!-- Node1&#45;&gt;Node4 -->
<g id="edge3" class="edge">
<title>Node1&#45;&gt;Node4</title>
<path fill="none" stroke="midnightblue" d="M367.25,-275.18C383.81,-265.24 405.63,-252.15 419.79,-243.65"/>
<polygon fill="midnightblue" stroke="midnightblue" points="365.45,-272.18 358.67,-280.32 369.05,-278.18 365.45,-272.18"/>
</g>
<!-- Node9 -->
<g id="node9" class="node">
<title>Node9</title>
<g id="a_node9"><a xlink:href="../../d9/deb/getcommands_8cpp.html" target="_top" xlink:title=" ">
<polygon fill="white" stroke="black" points="162.71,-56.5 162.71,-75.5 269.71,-75.5 269.71,-56.5 162.71,-56.5"/>
<text text-anchor="middle" x="216.21" y="-63.5" font-family="Helvetica,sans-Serif" font-size="10.00">getcommands.cpp</text>
</a>
</g>
</g>
<!-- Node1&#45;&gt;Node9 -->
<g id="edge25" class="edge">
<title>Node1&#45;&gt;Node9</title>
<path fill="none" stroke="midnightblue" d="M290.16,-289.14C232.29,-287.3 139.09,-278.53 67.21,-244 33.74,-227.92 20.29,-221.93 5.21,-188 -25.56,-118.73 90.56,-87.11 162.7,-74.4"/>
<polygon fill="midnightblue" stroke="midnightblue" points="290.1,-292.64 300.19,-289.4 290.29,-285.64 290.1,-292.64"/>
</g>
<!-- Node10 -->
<g id="node10" class="node">
<title>Node10</title>
<g id="a_node10"><a xlink:href="../../d2/d66/getcommands_8h.html" target="_top" xlink:title=" ">
<polygon fill="white" stroke="black" points="733.71,-112.5 733.71,-131.5 828.71,-131.5 828.71,-112.5 733.71,-112.5"/>
<text text-anchor="middle" x="781.21" y="-119.5" font-family="Helvetica,sans-Serif" font-size="10.00">getcommands.h</text>
</a>
</g>
</g>
<!-- Node1&#45;&gt;Node10 -->
<g id="edge26" class="edge">
<title>Node1&#45;&gt;Node10</title>
<path fill="none" stroke="midnightblue" d="M398.61,-287.46C513.84,-283.7 778.92,-272.17 864.21,-244 909.31,-229.11 932.05,-229.46 955.21,-188 983.02,-138.24 889.48,-126.21 828.91,-123.53"/>
<polygon fill="midnightblue" stroke="midnightblue" points="398.48,-283.97 388.6,-287.78 398.7,-290.96 398.48,-283.97"/>
</g>
<!-- Node14 -->
<g id="node14" class="node">
<title>Node14</title>
<g id="a_node14"><a xlink:href="../../db/d26/priest_8cpp.html" target="_top" xlink:title=" ">
<polygon fill="white" stroke="black" points="650.71,-112.5 650.71,-131.5 715.71,-131.5 715.71,-112.5 650.71,-112.5"/>
<text text-anchor="middle" x="683.21" y="-119.5" font-family="Helvetica,sans-Serif" font-size="10.00">priest.cpp</text>
</a>
</g>
</g>
<!-- Node1&#45;&gt;Node14 -->
<g id="edge27" class="edge">
<title>Node1&#45;&gt;Node14</title>
<path fill="none" stroke="midnightblue" d="M398.83,-288.29C532.33,-285.29 869.31,-269.61 938.21,-188 983.01,-134.94 1062.73,-196.65 725.21,-132 722.14,-131.41 718.94,-130.77 715.74,-130.12"/>
<polygon fill="midnightblue" stroke="midnightblue" points="398.37,-284.8 388.44,-288.51 398.51,-291.8 398.37,-284.8"/>
</g>
<!-- Node15 -->
<g id="node15" class="node">
<title>Node15</title>
<g id="a_node15"><a xlink:href="../../d8/d4d/priest_8h.html" target="_top" xlink:title=" ">
<polygon fill="white" stroke="black" points="161.71,-168.5 161.71,-187.5 214.71,-187.5 214.71,-168.5 161.71,-168.5"/>
<text text-anchor="middle" x="188.21" y="-175.5" font-family="Helvetica,sans-Serif" font-size="10.00">priest.h</text>
</a>
</g>
</g>
<!-- Node1&#45;&gt;Node15 -->
<g id="edge28" class="edge">
<title>Node1&#45;&gt;Node15</title>
<path fill="none" stroke="midnightblue" d="M323.53,-274.42C290.54,-251.15 227,-206.35 200.4,-187.59"/>
<polygon fill="midnightblue" stroke="midnightblue" points="321.78,-277.47 331.97,-280.37 325.82,-271.75 321.78,-277.47"/>
</g>
<!-- Node17 -->
<g id="node17" class="node">
<title>Node17</title>
<g id="a_node17"><a xlink:href="../../d8/d4c/shieldedfield_8cpp.html" target="_top" xlink:title=" ">
<polygon fill="white" stroke="black" points="1073.71,-224.5 1073.71,-243.5 1172.71,-243.5 1172.71,-224.5 1073.71,-224.5"/>
<text text-anchor="middle" x="1123.21" y="-231.5" font-family="Helvetica,sans-Serif" font-size="10.00">shieldedfield.cpp</text>
</a>
</g>
</g>
<!-- Node1&#45;&gt;Node17 -->
<g id="edge29" class="edge">
<title>Node1&#45;&gt;Node17</title>
<path fill="none" stroke="midnightblue" d="M398.59,-287.01C518.25,-282.3 813.28,-268.99 1059.21,-244 1063.9,-243.52 1068.77,-242.96 1073.64,-242.35"/>
<polygon fill="midnightblue" stroke="midnightblue" points="398.1,-283.52 388.25,-287.41 398.37,-290.52 398.1,-283.52"/>
</g>
<!-- Node4&#45;&gt;Node2 -->
<g id="edge4" class="edge">
<title>Node4&#45;&gt;Node2</title>
<path fill="none" stroke="midnightblue" d="M388.3,-231.49C317.56,-228.24 186.49,-218.2 152.21,-188 135.81,-173.54 133.21,-145.78 133.02,-131.68"/>
<polygon fill="midnightblue" stroke="midnightblue" points="388.55,-235.01 398.69,-231.94 388.85,-228.02 388.55,-235.01"/>
</g>
<!-- Node4&#45;&gt;Node3 -->
<g id="edge9" class="edge">
<title>Node4&#45;&gt;Node3</title>
<path fill="none" stroke="midnightblue" d="M388.14,-226.72C326.73,-218.27 214.71,-202.63 119.21,-188 114.72,-187.31 110.02,-186.57 105.34,-185.82"/>
<polygon fill="midnightblue" stroke="midnightblue" points="387.89,-230.22 398.28,-228.11 388.84,-223.28 387.89,-230.22"/>
</g>
<!-- Node5 -->
<g id="node5" class="node">
<title>Node5</title>
<g id="a_node5"><a xlink:href="../../db/d71/bombedfield_8cpp.html" target="_top" xlink:title=" ">
<polygon fill="white" stroke="black" points="271.21,-168.5 271.21,-187.5 369.21,-187.5 369.21,-168.5 271.21,-168.5"/>
<text text-anchor="middle" x="320.21" y="-175.5" font-family="Helvetica,sans-Serif" font-size="10.00">bombedfield.cpp</text>
</a>
</g>
</g>
<!-- Node4&#45;&gt;Node5 -->
<g id="edge5" class="edge">
<title>Node4&#45;&gt;Node5</title>
<path fill="none" stroke="midnightblue" d="M406.97,-220.1C385.67,-210.01 356.67,-196.27 338.19,-187.52"/>
<polygon fill="midnightblue" stroke="midnightblue" points="405.61,-223.33 416.15,-224.44 408.61,-217 405.61,-223.33"/>
</g>
<!-- Node6 -->
<g id="node6" class="node">
<title>Node6</title>
<g id="a_node6"><a xlink:href="../../da/dca/burnedfield_8cpp.html" target="_top" xlink:title=" ">
<polygon fill="white" stroke="black" points="609.21,-168.5 609.21,-187.5 701.21,-187.5 701.21,-168.5 609.21,-168.5"/>
<text text-anchor="middle" x="655.21" y="-175.5" font-family="Helvetica,sans-Serif" font-size="10.00">burnedfield.cpp</text>
</a>
</g>
</g>
<!-- Node4&#45;&gt;Node6 -->
<g id="edge6" class="edge">
<title>Node4&#45;&gt;Node6</title>
<path fill="none" stroke="midnightblue" d="M479.13,-222.02C520.88,-211.82 582.2,-196.84 620.36,-187.52"/>
<polygon fill="midnightblue" stroke="midnightblue" points="478.12,-218.67 469.23,-224.44 479.78,-225.47 478.12,-218.67"/>
</g>
<!-- Node7 -->
<g id="node7" class="node">
<title>Node7</title>
<g id="a_node7"><a xlink:href="../../d1/da6/cannon_8cpp.html" target="_top" xlink:title=" ">
<polygon fill="white" stroke="black" points="719.21,-168.5 719.21,-187.5 791.21,-187.5 791.21,-168.5 719.21,-168.5"/>
<text text-anchor="middle" x="755.21" y="-175.5" font-family="Helvetica,sans-Serif" font-size="10.00">cannon.cpp</text>
</a>
</g>
</g>
<!-- Node4&#45;&gt;Node7 -->
<g id="edge7" class="edge">
<title>Node4&#45;&gt;Node7</title>
<path fill="none" stroke="midnightblue" d="M480.11,-226.03C534.95,-217.59 629.43,-202.66 710.21,-188 713.04,-187.49 715.95,-186.94 718.89,-186.38"/>
<polygon fill="midnightblue" stroke="midnightblue" points="479.36,-222.6 470.01,-227.58 480.43,-229.52 479.36,-222.6"/>
</g>
<!-- Node8 -->
<g id="node8" class="node">
<title>Node8</title>
<g id="a_node8"><a xlink:href="../../da/def/fireballspell_8cpp.html" target="_top" xlink:title=" ">
<polygon fill="white" stroke="black" points="809.21,-168.5 809.21,-187.5 903.21,-187.5 903.21,-168.5 809.21,-168.5"/>
<text text-anchor="middle" x="856.21" y="-175.5" font-family="Helvetica,sans-Serif" font-size="10.00">fireballspell.cpp</text>
</a>
</g>
</g>
<!-- Node4&#45;&gt;Node8 -->
<g id="edge8" class="edge">
<title>Node4&#45;&gt;Node8</title>
<path fill="none" stroke="midnightblue" d="M480.01,-227.92C549.38,-220.1 685.21,-204.31 800.21,-188 803.14,-187.59 806.15,-187.14 809.18,-186.69"/>
<polygon fill="midnightblue" stroke="midnightblue" points="479.41,-224.47 469.86,-229.06 480.19,-231.42 479.41,-224.47"/>
</g>
<!-- Node4&#45;&gt;Node9 -->
<g id="edge10" class="edge">
<title>Node4&#45;&gt;Node9</title>
<path fill="none" stroke="midnightblue" d="M388.16,-232.18C350.05,-229.12 296.75,-219.01 262.21,-188 227.77,-157.07 218.97,-97.57 216.85,-75.5"/>
<polygon fill="midnightblue" stroke="midnightblue" points="388.27,-235.69 398.48,-232.86 388.74,-228.71 388.27,-235.69"/>
</g>
<!-- Node4&#45;&gt;Node10 -->
<g id="edge11" class="edge">
<title>Node4&#45;&gt;Node10</title>
<path fill="none" stroke="midnightblue" d="M479.99,-232.36C598.39,-230.22 907.6,-221.47 938.21,-188 973.06,-149.91 886.9,-133.52 828.89,-126.96"/>
<polygon fill="midnightblue" stroke="midnightblue" points="479.75,-228.86 469.81,-232.53 479.87,-235.86 479.75,-228.86"/>
</g>
<!-- Node12 -->
<g id="node12" class="node">
<title>Node12</title>
<g id="a_node12"><a xlink:href="../../d4/dbf/main_8h.html" target="_top" xlink:title=" ">
<polygon fill="white" stroke="black" points="703.21,-56.5 703.21,-75.5 753.21,-75.5 753.21,-56.5 703.21,-56.5"/>
<text text-anchor="middle" x="728.21" y="-63.5" font-family="Helvetica,sans-Serif" font-size="10.00">main.h</text>
</a>
</g>
</g>
<!-- Node4&#45;&gt;Node12 -->
<g id="edge16" class="edge">
<title>Node4&#45;&gt;Node12</title>
<path fill="none" stroke="midnightblue" d="M421.84,-215.5C413.62,-201.52 406.03,-182 416.21,-168 484.37,-74.3 641.32,-65.75 702.83,-66.18"/>
<polygon fill="midnightblue" stroke="midnightblue" points="419.07,-217.66 427.43,-224.17 424.95,-213.87 419.07,-217.66"/>
</g>
<!-- Node13 -->
<g id="node13" class="node">
<title>Node13</title>
<g id="a_node13"><a xlink:href="../../d1/d55/morogspell_8cpp.html" target="_top" xlink:title=" ">
<polygon fill="white" stroke="black" points="425.21,-168.5 425.21,-187.5 517.21,-187.5 517.21,-168.5 425.21,-168.5"/>
<text text-anchor="middle" x="471.21" y="-175.5" font-family="Helvetica,sans-Serif" font-size="10.00">morogspell.cpp</text>
</a>
</g>
</g>
<!-- Node4&#45;&gt;Node13 -->
<g id="edge17" class="edge">
<title>Node4&#45;&gt;Node13</title>
<path fill="none" stroke="midnightblue" d="M446.16,-215.57C452.53,-206.27 460.08,-195.25 465.22,-187.75"/>
<polygon fill="midnightblue" stroke="midnightblue" points="443.09,-213.86 440.32,-224.08 448.86,-217.81 443.09,-213.86"/>
</g>
<!-- Node4&#45;&gt;Node14 -->
<g id="edge18" class="edge">
<title>Node4&#45;&gt;Node14</title>
<path fill="none" stroke="midnightblue" d="M479.98,-232.12C593.96,-229.45 883.44,-219.61 912.21,-188 955.07,-140.92 1004.27,-188.75 725.21,-132 722.14,-131.38 718.95,-130.71 715.76,-130.04"/>
<polygon fill="midnightblue" stroke="midnightblue" points="479.75,-228.62 469.83,-232.35 479.91,-235.62 479.75,-228.62"/>
</g>
<!-- Node4&#45;&gt;Node15 -->
<g id="edge19" class="edge">
<title>Node4&#45;&gt;Node15</title>
<path fill="none" stroke="midnightblue" d="M388.93,-223.06C337.95,-211.87 256.78,-194.05 215,-184.88"/>
<polygon fill="midnightblue" stroke="midnightblue" points="388.19,-226.48 398.71,-225.21 389.69,-219.64 388.19,-226.48"/>
</g>
<!-- Node16 -->
<g id="node16" class="node">
<title>Node16</title>
<g id="a_node16"><a xlink:href="../../d7/d49/unit_8cpp.html" target="_top" xlink:title=" ">
<polygon fill="white" stroke="black" points="535.21,-168.5 535.21,-187.5 591.21,-187.5 591.21,-168.5 535.21,-168.5"/>
<text text-anchor="middle" x="563.21" y="-175.5" font-family="Helvetica,sans-Serif" font-size="10.00">unit.cpp</text>
</a>
</g>
</g>
<!-- Node4&#45;&gt;Node16 -->
<g id="edge24" class="edge">
<title>Node4&#45;&gt;Node16</title>
<path fill="none" stroke="midnightblue" d="M464.07,-220.5C488.25,-210.38 521.68,-196.39 542.87,-187.52"/>
<polygon fill="midnightblue" stroke="midnightblue" points="462.53,-217.35 454.65,-224.44 465.23,-223.81 462.53,-217.35"/>
</g>
<!-- Node10&#45;&gt;Node9 -->
<g id="edge12" class="edge">
<title>Node10&#45;&gt;Node9</title>
<path fill="none" stroke="midnightblue" d="M723.63,-111.88C552.25,-90.86 361.01,-76.67 269.84,-70.48"/>
<polygon fill="midnightblue" stroke="midnightblue" points="723.23,-115.36 733.59,-113.11 724.09,-108.41 723.23,-115.36"/>
</g>
<!-- Node11 -->
<g id="node11" class="node">
<title>Node11</title>
<g id="a_node11"><a xlink:href="../../df/d0a/main_8cpp.html" target="_top" xlink:title=" ">
<polygon fill="white" stroke="black" points="723.21,-0.5 723.21,-19.5 785.21,-19.5 785.21,-0.5 723.21,-0.5"/>
<text text-anchor="middle" x="754.21" y="-7.5" font-family="Helvetica,sans-Serif" font-size="10.00">main.cpp</text>
</a>
</g>
</g>
<!-- Node10&#45;&gt;Node11 -->
<g id="edge13" class="edge">
<title>Node10&#45;&gt;Node11</title>
<path fill="none" stroke="midnightblue" d="M776.64,-102.35C770.72,-78.25 760.67,-37.31 756.32,-19.59"/>
<polygon fill="midnightblue" stroke="midnightblue" points="773.31,-103.49 779.09,-112.37 780.11,-101.82 773.31,-103.49"/>
</g>
<!-- Node10&#45;&gt;Node12 -->
<g id="edge14" class="edge">
<title>Node10&#45;&gt;Node12</title>
<path fill="none" stroke="midnightblue" d="M765.23,-104.72C755.89,-95.2 744.47,-83.56 736.8,-75.75"/>
<polygon fill="midnightblue" stroke="midnightblue" points="762.96,-107.4 772.46,-112.08 767.95,-102.49 762.96,-107.4"/>
</g>
<!-- Node12&#45;&gt;Node11 -->
<g id="edge15" class="edge">
<title>Node12&#45;&gt;Node11</title>
<path fill="none" stroke="midnightblue" d="M736.89,-46.98C741.3,-37.82 746.47,-27.09 750,-19.75"/>
<polygon fill="midnightblue" stroke="midnightblue" points="733.69,-45.55 732.51,-56.08 740,-48.59 733.69,-45.55"/>
</g>
<!-- Node15&#45;&gt;Node2 -->
<g id="edge20" class="edge">
<title>Node15&#45;&gt;Node2</title>
<path fill="none" stroke="midnightblue" d="M171.92,-161C162.17,-151.43 150.16,-139.64 142.13,-131.75"/>
<polygon fill="midnightblue" stroke="midnightblue" points="169.54,-163.57 179.13,-168.08 174.45,-158.58 169.54,-163.57"/>
</g>
<!-- Node15&#45;&gt;Node9 -->
<g id="edge21" class="edge">
<title>Node15&#45;&gt;Node9</title>
<path fill="none" stroke="midnightblue" d="M192.88,-158.67C199,-134.62 209.5,-93.39 214.03,-75.59"/>
<polygon fill="midnightblue" stroke="midnightblue" points="189.49,-157.81 190.41,-168.37 196.27,-159.54 189.49,-157.81"/>
</g>
<!-- Node15&#45;&gt;Node10 -->
<g id="edge22" class="edge">
<title>Node15&#45;&gt;Node10</title>
<path fill="none" stroke="midnightblue" d="M224.93,-172.21C236.81,-170.75 250.06,-169.21 262.21,-168 467.6,-147.54 520.26,-156.4 725.21,-132 727.95,-131.67 730.76,-131.31 733.59,-130.93"/>
<polygon fill="midnightblue" stroke="midnightblue" points="224.39,-168.76 214.9,-173.47 225.26,-175.7 224.39,-168.76"/>
</g>
<!-- Node15&#45;&gt;Node14 -->
<g id="edge23" class="edge">
<title>Node15&#45;&gt;Node14</title>
<path fill="none" stroke="midnightblue" d="M224.95,-172.42C236.84,-170.97 250.08,-169.39 262.21,-168 407,-151.46 580.02,-133.55 650.71,-126.31"/>
<polygon fill="midnightblue" stroke="midnightblue" points="224.42,-168.96 214.92,-173.66 225.27,-175.91 224.42,-168.96"/>
</g>
</g>
</svg>
