<?xml version="1.0" encoding="UTF-8" standalone="no"?>
<!DOCTYPE svg PUBLIC "-//W3C//DTD SVG 1.1//EN"
 "http://www.w3.org/Graphics/SVG/1.1/DTD/svg11.dtd">
<!-- Generated by graphviz version 2.43.0 (0)
 -->
<!-- Title: fortress.cpp Pages: 1 -->
<svg width="347pt" height="308pt"
 viewBox="0.00 0.00 346.52 308.00" xmlns="http://www.w3.org/2000/svg" xmlns:xlink="http://www.w3.org/1999/xlink">
<g id="graph0" class="graph" transform="scale(1 1) rotate(0) translate(4 304)">
<title>fortress.cpp</title>
<polygon fill="white" stroke="transparent" points="-4,4 -4,-304 342.52,-304 342.52,4 -4,4"/>
<!-- Node1 -->
<g id="node1" class="node">
<title>Node1</title>
<g id="a_node1"><a xlink:title=" ">
<polygon fill="#bfbfbf" stroke="black" points="145.52,-280.5 145.52,-299.5 219.52,-299.5 219.52,-280.5 145.52,-280.5"/>
<text text-anchor="middle" x="182.52" y="-287.5" font-family="Helvetica,sans-Serif" font-size="10.00">fortress.cpp</text>
</a>
</g>
</g>
<!-- Node2 -->
<g id="node2" class="node">
<title>Node2</title>
<g id="a_node2"><a xlink:href="../../d4/d43/fortress_8h.html" target="_top" xlink:title=" ">
<polygon fill="white" stroke="black" points="121.02,-224.5 121.02,-243.5 184.02,-243.5 184.02,-224.5 121.02,-224.5"/>
<text text-anchor="middle" x="152.52" y="-231.5" font-family="Helvetica,sans-Serif" font-size="10.00">fortress.h</text>
</a>
</g>
</g>
<!-- Node1&#45;&gt;Node2 -->
<g id="edge1" class="edge">
<title>Node1&#45;&gt;Node2</title>
<path fill="none" stroke="midnightblue" d="M177.56,-280.08C173.41,-272.61 167.36,-261.72 162.25,-252.52"/>
<polygon fill="midnightblue" stroke="midnightblue" points="165.29,-250.79 157.38,-243.75 159.17,-254.19 165.29,-250.79"/>
</g>
<!-- Node3 -->
<g id="node3" class="node">
<title>Node3</title>
<g id="a_node3"><a xlink:href="../../d5/d5a/field_8h.html" target="_top" xlink:title=" ">
<polygon fill="white" stroke="black" points="241.02,-168.5 241.02,-187.5 288.02,-187.5 288.02,-168.5 241.02,-168.5"/>
<text text-anchor="middle" x="264.52" y="-175.5" font-family="Helvetica,sans-Serif" font-size="10.00">field.h</text>
</a>
</g>
</g>
<!-- Node1&#45;&gt;Node3 -->
<g id="edge14" class="edge">
<title>Node1&#45;&gt;Node3</title>
<path fill="none" stroke="midnightblue" d="M192.32,-280.3C201.74,-271.65 216.05,-257.73 226.52,-244 237.89,-229.09 248.44,-210.48 255.53,-197"/>
<polygon fill="midnightblue" stroke="midnightblue" points="258.78,-198.33 260.23,-187.84 252.55,-195.14 258.78,-198.33"/>
</g>
<!-- Node6 -->
<g id="node6" class="node">
<title>Node6</title>
<g id="a_node6"><a xlink:href="../../d3/d62/player_8h.html" target="_top" xlink:title=" ">
<polygon fill="white" stroke="black" points="164.52,-112.5 164.52,-131.5 220.52,-131.5 220.52,-112.5 164.52,-112.5"/>
<text text-anchor="middle" x="192.52" y="-119.5" font-family="Helvetica,sans-Serif" font-size="10.00">player.h</text>
</a>
</g>
</g>
<!-- Node1&#45;&gt;Node6 -->
<g id="edge16" class="edge">
<title>Node1&#45;&gt;Node6</title>
<path fill="none" stroke="midnightblue" d="M185,-280.47C187.47,-271.48 191.1,-256.89 192.52,-244 196.48,-207.93 195.09,-165.45 193.77,-141.63"/>
<polygon fill="midnightblue" stroke="midnightblue" points="197.26,-141.31 193.15,-131.54 190.27,-141.74 197.26,-141.31"/>
</g>
<!-- Node7 -->
<g id="node7" class="node">
<title>Node7</title>
<g id="a_node7"><a xlink:href="../../d1/da2/unit_8h.html" target="_top" xlink:title=" ">
<polygon fill="white" stroke="black" points="115.52,-56.5 115.52,-75.5 159.52,-75.5 159.52,-56.5 115.52,-56.5"/>
<text text-anchor="middle" x="137.52" y="-63.5" font-family="Helvetica,sans-Serif" font-size="10.00">unit.h</text>
</a>
</g>
</g>
<!-- Node1&#45;&gt;Node7 -->
<g id="edge15" class="edge">
<title>Node1&#45;&gt;Node7</title>
<path fill="none" stroke="midnightblue" d="M145.47,-280.5C102.34,-268.33 33.45,-241.27 5.52,-188 -21.04,-137.36 58.69,-97.03 105.7,-78.33"/>
<polygon fill="midnightblue" stroke="midnightblue" points="107.11,-81.54 115.18,-74.68 104.59,-75.01 107.11,-81.54"/>
</g>
<!-- Node8 -->
<g id="node8" class="node">
<title>Node8</title>
<g id="a_node8"><a xlink:href="../../dc/de1/archer_8h.html" target="_top" xlink:title=" ">
<polygon fill="white" stroke="black" points="14.52,-168.5 14.52,-187.5 70.52,-187.5 70.52,-168.5 14.52,-168.5"/>
<text text-anchor="middle" x="42.52" y="-175.5" font-family="Helvetica,sans-Serif" font-size="10.00">archer.h</text>
</a>
</g>
</g>
<!-- Node1&#45;&gt;Node8 -->
<g id="edge17" class="edge">
<title>Node1&#45;&gt;Node8</title>
<path fill="none" stroke="midnightblue" d="M167.27,-280.48C152.51,-271.97 129.73,-258.14 111.52,-244 91.74,-228.64 71.1,-208.58 57.61,-194.83"/>
<polygon fill="midnightblue" stroke="midnightblue" points="60.02,-192.29 50.55,-187.55 54.99,-197.17 60.02,-192.29"/>
</g>
<!-- Node9 -->
<g id="node9" class="node">
<title>Node9</title>
<g id="a_node9"><a xlink:title=" ">
<polygon fill="white" stroke="#bfbfbf" points="278.52,-224.5 278.52,-243.5 338.52,-243.5 338.52,-224.5 278.52,-224.5"/>
<text text-anchor="middle" x="308.52" y="-231.5" font-family="Helvetica,sans-Serif" font-size="10.00">iostream</text>
</a>
</g>
</g>
<!-- Node1&#45;&gt;Node9 -->
<g id="edge19" class="edge">
<title>Node1&#45;&gt;Node9</title>
<path fill="none" stroke="midnightblue" d="M202.48,-280.44C223.12,-271.6 255.58,-257.69 279.15,-247.59"/>
<polygon fill="midnightblue" stroke="midnightblue" points="280.83,-250.67 288.64,-243.52 278.07,-244.24 280.83,-250.67"/>
</g>
<!-- Node2&#45;&gt;Node3 -->
<g id="edge2" class="edge">
<title>Node2&#45;&gt;Node3</title>
<path fill="none" stroke="midnightblue" d="M170.51,-224.32C188.55,-215.62 216.56,-202.12 237.32,-192.11"/>
<polygon fill="midnightblue" stroke="midnightblue" points="239.08,-195.15 246.57,-187.65 236.04,-188.84 239.08,-195.15"/>
</g>
<!-- Node4 -->
<g id="node4" class="node">
<title>Node4</title>
<g id="a_node4"><a xlink:title=" ">
<polygon fill="white" stroke="#bfbfbf" points="143.52,-0.5 143.52,-19.5 187.52,-19.5 187.52,-0.5 143.52,-0.5"/>
<text text-anchor="middle" x="165.52" y="-7.5" font-family="Helvetica,sans-Serif" font-size="10.00">string</text>
</a>
</g>
</g>
<!-- Node2&#45;&gt;Node4 -->
<g id="edge13" class="edge">
<title>Node2&#45;&gt;Node4</title>
<path fill="none" stroke="midnightblue" d="M146.26,-224.46C127.8,-198.12 76.66,-116.33 106.52,-56 113.12,-42.66 125.78,-32.19 137.69,-24.73"/>
<polygon fill="midnightblue" stroke="midnightblue" points="139.63,-27.64 146.53,-19.6 136.12,-21.59 139.63,-27.64"/>
</g>
<!-- Node2&#45;&gt;Node6 -->
<g id="edge12" class="edge">
<title>Node2&#45;&gt;Node6</title>
<path fill="none" stroke="midnightblue" d="M155.65,-224.37C162.14,-206.54 177.14,-165.3 185.87,-141.27"/>
<polygon fill="midnightblue" stroke="midnightblue" points="189.26,-142.19 189.39,-131.59 182.68,-139.79 189.26,-142.19"/>
</g>
<!-- Node2&#45;&gt;Node7 -->
<g id="edge11" class="edge">
<title>Node2&#45;&gt;Node7</title>
<path fill="none" stroke="midnightblue" d="M151.71,-224.08C149.35,-197.95 142.41,-121.21 139.19,-85.58"/>
<polygon fill="midnightblue" stroke="midnightblue" points="142.68,-85.21 138.29,-75.57 135.7,-85.84 142.68,-85.21"/>
</g>
<!-- Node3&#45;&gt;Node4 -->
<g id="edge3" class="edge">
<title>Node3&#45;&gt;Node4</title>
<path fill="none" stroke="midnightblue" d="M260.17,-168.48C253.74,-155.96 241.17,-131.91 229.52,-112 211.95,-81.97 189.96,-47.98 176.86,-28.08"/>
<polygon fill="midnightblue" stroke="midnightblue" points="179.64,-25.93 171.2,-19.52 173.8,-29.79 179.64,-25.93"/>
</g>
<!-- Node5 -->
<g id="node5" class="node">
<title>Node5</title>
<g id="a_node5"><a xlink:title=" ">
<polygon fill="white" stroke="#bfbfbf" points="253.02,-0.5 253.02,-19.5 300.02,-19.5 300.02,-0.5 253.02,-0.5"/>
<text text-anchor="middle" x="276.52" y="-7.5" font-family="Helvetica,sans-Serif" font-size="10.00">vector</text>
</a>
</g>
</g>
<!-- Node3&#45;&gt;Node5 -->
<g id="edge4" class="edge">
<title>Node3&#45;&gt;Node5</title>
<path fill="none" stroke="midnightblue" d="M265.16,-168.08C267.05,-141.95 272.6,-65.21 275.17,-29.58"/>
<polygon fill="midnightblue" stroke="midnightblue" points="278.67,-29.79 275.9,-19.57 271.68,-29.29 278.67,-29.79"/>
</g>
<!-- Node3&#45;&gt;Node6 -->
<g id="edge5" class="edge">
<title>Node3&#45;&gt;Node6</title>
<path fill="none" stroke="midnightblue" d="M252.95,-168.32C242.1,-160.18 225.64,-147.84 212.63,-138.09"/>
<polygon fill="midnightblue" stroke="midnightblue" points="214.39,-135.03 204.29,-131.83 210.19,-140.63 214.39,-135.03"/>
</g>
<!-- Node6&#45;&gt;Node4 -->
<g id="edge6" class="edge">
<title>Node6&#45;&gt;Node4</title>
<path fill="none" stroke="midnightblue" d="M190.4,-112.37C186.04,-94.62 175.99,-53.67 170.08,-29.6"/>
<polygon fill="midnightblue" stroke="midnightblue" points="173.41,-28.47 167.62,-19.59 166.61,-30.14 173.41,-28.47"/>
</g>
<!-- Node6&#45;&gt;Node5 -->
<g id="edge7" class="edge">
<title>Node6&#45;&gt;Node5</title>
<path fill="none" stroke="midnightblue" d="M199.11,-112.37C213.03,-94.14 245.65,-51.43 263.78,-27.68"/>
<polygon fill="midnightblue" stroke="midnightblue" points="266.67,-29.66 269.96,-19.59 261.1,-25.41 266.67,-29.66"/>
</g>
<!-- Node6&#45;&gt;Node7 -->
<g id="edge8" class="edge">
<title>Node6&#45;&gt;Node7</title>
<path fill="none" stroke="midnightblue" d="M183.43,-112.08C175.34,-104.14 163.32,-92.34 153.61,-82.8"/>
<polygon fill="midnightblue" stroke="midnightblue" points="156.02,-80.26 146.43,-75.75 151.11,-85.25 156.02,-80.26"/>
</g>
<!-- Node7&#45;&gt;Node4 -->
<g id="edge9" class="edge">
<title>Node7&#45;&gt;Node4</title>
<path fill="none" stroke="midnightblue" d="M142.14,-56.08C145.97,-48.69 151.54,-37.95 156.28,-28.81"/>
<polygon fill="midnightblue" stroke="midnightblue" points="159.48,-30.24 160.98,-19.75 153.27,-27.02 159.48,-30.24"/>
</g>
<!-- Node7&#45;&gt;Node5 -->
<g id="edge10" class="edge">
<title>Node7&#45;&gt;Node5</title>
<path fill="none" stroke="midnightblue" d="M159.54,-56.44C182.62,-47.48 219.08,-33.31 245.16,-23.18"/>
<polygon fill="midnightblue" stroke="midnightblue" points="246.54,-26.4 254.59,-19.52 244.01,-19.88 246.54,-26.4"/>
</g>
<!-- Node8&#45;&gt;Node7 -->
<g id="edge18" class="edge">
<title>Node8&#45;&gt;Node7</title>
<path fill="none" stroke="midnightblue" d="M49.97,-168.37C65.79,-150.05 102.93,-107.05 123.38,-83.36"/>
<polygon fill="midnightblue" stroke="midnightblue" points="126.21,-85.45 130.1,-75.59 120.91,-80.87 126.21,-85.45"/>
</g>
</g>
</svg>
