<?xml version="1.0" encoding="UTF-8" standalone="no"?>
<!DOCTYPE svg PUBLIC "-//W3C//DTD SVG 1.1//EN"
 "http://www.w3.org/Graphics/SVG/1.1/DTD/svg11.dtd">
<!-- Generated by graphviz version 2.43.0 (0)
 -->
<!-- Title: bombspell.cpp Pages: 1 -->
<svg width="382pt" height="364pt"
 viewBox="0.00 0.00 382.00 364.00" xmlns="http://www.w3.org/2000/svg" xmlns:xlink="http://www.w3.org/1999/xlink">
<g id="graph0" class="graph" transform="scale(1 1) rotate(0) translate(4 360)">
<title>bombspell.cpp</title>
<polygon fill="white" stroke="transparent" points="-4,4 -4,-360 378,-360 378,4 -4,4"/>
<!-- Node1 -->
<g id="node1" class="node">
<title>Node1</title>
<g id="a_node1"><a xlink:title=" ">
<polygon fill="#bfbfbf" stroke="black" points="170,-336.5 170,-355.5 258,-355.5 258,-336.5 170,-336.5"/>
<text text-anchor="middle" x="214" y="-343.5" font-family="Helvetica,sans-Serif" font-size="10.00">bombspell.cpp</text>
</a>
</g>
</g>
<!-- Node2 -->
<g id="node2" class="node">
<title>Node2</title>
<g id="a_node2"><a xlink:href="../../d3/d01/bombspell_8h.html" target="_top" xlink:title=" ">
<polygon fill="white" stroke="black" points="142.5,-280.5 142.5,-299.5 219.5,-299.5 219.5,-280.5 142.5,-280.5"/>
<text text-anchor="middle" x="181" y="-287.5" font-family="Helvetica,sans-Serif" font-size="10.00">bombspell.h</text>
</a>
</g>
</g>
<!-- Node1&#45;&gt;Node2 -->
<g id="edge1" class="edge">
<title>Node1&#45;&gt;Node2</title>
<path fill="none" stroke="midnightblue" d="M208.55,-336.08C203.99,-328.61 197.33,-317.72 191.71,-308.52"/>
<polygon fill="midnightblue" stroke="midnightblue" points="194.55,-306.46 186.35,-299.75 188.58,-310.11 194.55,-306.46"/>
</g>
<!-- Node3 -->
<g id="node3" class="node">
<title>Node3</title>
<g id="a_node3"><a xlink:href="../../d4/de3/spell_8h.html" target="_top" xlink:title=" ">
<polygon fill="white" stroke="black" points="208.5,-224.5 208.5,-243.5 257.5,-243.5 257.5,-224.5 208.5,-224.5"/>
<text text-anchor="middle" x="233" y="-231.5" font-family="Helvetica,sans-Serif" font-size="10.00">spell.h</text>
</a>
</g>
</g>
<!-- Node1&#45;&gt;Node3 -->
<g id="edge20" class="edge">
<title>Node1&#45;&gt;Node3</title>
<path fill="none" stroke="midnightblue" d="M217.39,-336.19C220.68,-327.22 225.54,-312.86 228,-300 230.93,-284.7 232.16,-267.05 232.66,-254.01"/>
<polygon fill="midnightblue" stroke="midnightblue" points="236.16,-254.01 232.95,-243.91 229.17,-253.81 236.16,-254.01"/>
</g>
<!-- Node5 -->
<g id="node5" class="node">
<title>Node5</title>
<g id="a_node5"><a xlink:title=" ">
<polygon fill="white" stroke="#bfbfbf" points="71.5,-0.5 71.5,-19.5 118.5,-19.5 118.5,-0.5 71.5,-0.5"/>
<text text-anchor="middle" x="95" y="-7.5" font-family="Helvetica,sans-Serif" font-size="10.00">vector</text>
</a>
</g>
</g>
<!-- Node1&#45;&gt;Node5 -->
<g id="edge24" class="edge">
<title>Node1&#45;&gt;Node5</title>
<path fill="none" stroke="midnightblue" d="M169.92,-341.71C107.27,-334.36 0,-310.71 0,-235 0,-235 0,-235 0,-121 0,-77.74 42.61,-43.09 70.75,-24.91"/>
<polygon fill="midnightblue" stroke="midnightblue" points="72.66,-27.85 79.31,-19.6 68.97,-21.9 72.66,-27.85"/>
</g>
<!-- Node6 -->
<g id="node6" class="node">
<title>Node6</title>
<g id="a_node6"><a xlink:href="../../d5/d5a/field_8h.html" target="_top" xlink:title=" ">
<polygon fill="white" stroke="black" points="256.5,-168.5 256.5,-187.5 303.5,-187.5 303.5,-168.5 256.5,-168.5"/>
<text text-anchor="middle" x="280" y="-175.5" font-family="Helvetica,sans-Serif" font-size="10.00">field.h</text>
</a>
</g>
</g>
<!-- Node1&#45;&gt;Node6 -->
<g id="edge22" class="edge">
<title>Node1&#45;&gt;Node6</title>
<path fill="none" stroke="midnightblue" d="M220.56,-336.38C227.07,-327.57 237.05,-313.32 244,-300 256.38,-276.3 258.27,-269.6 266,-244 270.65,-228.62 274.38,-210.74 276.82,-197.63"/>
<polygon fill="midnightblue" stroke="midnightblue" points="280.31,-197.98 278.62,-187.53 273.42,-196.76 280.31,-197.98"/>
</g>
<!-- Node9 -->
<g id="node9" class="node">
<title>Node9</title>
<g id="a_node9"><a xlink:href="../../d6/d83/bombedfield_8h.html" target="_top" xlink:title=" ">
<polygon fill="white" stroke="black" points="104,-224.5 104,-243.5 190,-243.5 190,-224.5 104,-224.5"/>
<text text-anchor="middle" x="147" y="-231.5" font-family="Helvetica,sans-Serif" font-size="10.00">bombedfield.h</text>
</a>
</g>
</g>
<!-- Node1&#45;&gt;Node9 -->
<g id="edge21" class="edge">
<title>Node1&#45;&gt;Node9</title>
<path fill="none" stroke="midnightblue" d="M182.98,-336.44C164.97,-329.69 143.77,-318.3 133,-300 124.43,-285.43 130.24,-266.26 136.79,-252.52"/>
<polygon fill="midnightblue" stroke="midnightblue" points="139.92,-254.09 141.5,-243.61 133.73,-250.82 139.92,-254.09"/>
</g>
<!-- Node10 -->
<g id="node10" class="node">
<title>Node10</title>
<g id="a_node10"><a xlink:title=" ">
<polygon fill="white" stroke="#bfbfbf" points="314,-280.5 314,-299.5 374,-299.5 374,-280.5 314,-280.5"/>
<text text-anchor="middle" x="344" y="-287.5" font-family="Helvetica,sans-Serif" font-size="10.00">iostream</text>
</a>
</g>
</g>
<!-- Node1&#45;&gt;Node10 -->
<g id="edge23" class="edge">
<title>Node1&#45;&gt;Node10</title>
<path fill="none" stroke="midnightblue" d="M234.6,-336.44C255.99,-327.56 289.68,-313.56 314.02,-303.45"/>
<polygon fill="midnightblue" stroke="midnightblue" points="315.61,-306.58 323.5,-299.52 312.92,-300.12 315.61,-306.58"/>
</g>
<!-- Node2&#45;&gt;Node3 -->
<g id="edge2" class="edge">
<title>Node2&#45;&gt;Node3</title>
<path fill="none" stroke="midnightblue" d="M189.59,-280.08C197.16,-272.22 208.38,-260.57 217.51,-251.08"/>
<polygon fill="midnightblue" stroke="midnightblue" points="220.16,-253.38 224.57,-243.75 215.12,-248.53 220.16,-253.38"/>
</g>
<!-- Node2&#45;&gt;Node9 -->
<g id="edge14" class="edge">
<title>Node2&#45;&gt;Node9</title>
<path fill="none" stroke="midnightblue" d="M175.39,-280.08C170.63,-272.53 163.68,-261.49 157.85,-252.23"/>
<polygon fill="midnightblue" stroke="midnightblue" points="160.8,-250.35 152.51,-243.75 154.88,-254.08 160.8,-250.35"/>
</g>
<!-- Node4 -->
<g id="node4" class="node">
<title>Node4</title>
<g id="a_node4"><a xlink:title=" ">
<polygon fill="white" stroke="#bfbfbf" points="268,-0.5 268,-19.5 312,-19.5 312,-0.5 268,-0.5"/>
<text text-anchor="middle" x="290" y="-7.5" font-family="Helvetica,sans-Serif" font-size="10.00">string</text>
</a>
</g>
</g>
<!-- Node3&#45;&gt;Node4 -->
<g id="edge3" class="edge">
<title>Node3&#45;&gt;Node4</title>
<path fill="none" stroke="midnightblue" d="M257.87,-226.19C276.5,-219.67 300.81,-207.82 313,-188 343.76,-138 334.13,-112.45 318,-56 315.1,-45.84 309.17,-35.75 303.51,-27.7"/>
<polygon fill="midnightblue" stroke="midnightblue" points="306.22,-25.48 297.41,-19.59 300.62,-29.69 306.22,-25.48"/>
</g>
<!-- Node3&#45;&gt;Node5 -->
<g id="edge4" class="edge">
<title>Node3&#45;&gt;Node5</title>
<path fill="none" stroke="midnightblue" d="M221.31,-224.33C200.56,-208.34 157.2,-172.16 133,-132 113.09,-98.96 102.64,-54.48 98.02,-29.69"/>
<polygon fill="midnightblue" stroke="midnightblue" points="101.46,-29.05 96.29,-19.8 94.56,-30.25 101.46,-29.05"/>
</g>
<!-- Node3&#45;&gt;Node6 -->
<g id="edge5" class="edge">
<title>Node3&#45;&gt;Node6</title>
<path fill="none" stroke="midnightblue" d="M240.76,-224.08C247.54,-216.3 257.54,-204.8 265.76,-195.37"/>
<polygon fill="midnightblue" stroke="midnightblue" points="268.46,-197.59 272.38,-187.75 263.18,-193 268.46,-197.59"/>
</g>
<!-- Node6&#45;&gt;Node4 -->
<g id="edge6" class="edge">
<title>Node6&#45;&gt;Node4</title>
<path fill="none" stroke="midnightblue" d="M283.87,-168.24C292.17,-148.38 310.44,-98.35 304,-56 302.63,-47 299.81,-37.33 297.05,-29.26"/>
<polygon fill="midnightblue" stroke="midnightblue" points="300.31,-27.98 293.6,-19.78 293.73,-30.37 300.31,-27.98"/>
</g>
<!-- Node6&#45;&gt;Node5 -->
<g id="edge7" class="edge">
<title>Node6&#45;&gt;Node5</title>
<path fill="none" stroke="midnightblue" d="M276.05,-168.5C265.67,-146.95 235.57,-89.53 195,-56 175.45,-39.85 149.17,-28.32 128.46,-20.98"/>
<polygon fill="midnightblue" stroke="midnightblue" points="129.39,-17.6 118.79,-17.71 127.14,-24.23 129.39,-17.6"/>
</g>
<!-- Node7 -->
<g id="node7" class="node">
<title>Node7</title>
<g id="a_node7"><a xlink:href="../../d3/d62/player_8h.html" target="_top" xlink:title=" ">
<polygon fill="white" stroke="black" points="142,-112.5 142,-131.5 198,-131.5 198,-112.5 142,-112.5"/>
<text text-anchor="middle" x="170" y="-119.5" font-family="Helvetica,sans-Serif" font-size="10.00">player.h</text>
</a>
</g>
</g>
<!-- Node6&#45;&gt;Node7 -->
<g id="edge8" class="edge">
<title>Node6&#45;&gt;Node7</title>
<path fill="none" stroke="midnightblue" d="M262.33,-168.32C244.61,-159.62 217.1,-146.12 196.71,-136.11"/>
<polygon fill="midnightblue" stroke="midnightblue" points="198.15,-132.92 187.63,-131.65 195.06,-139.2 198.15,-132.92"/>
</g>
<!-- Node7&#45;&gt;Node4 -->
<g id="edge9" class="edge">
<title>Node7&#45;&gt;Node4</title>
<path fill="none" stroke="midnightblue" d="M179.42,-112.37C199.66,-93.81 247.55,-49.91 273.16,-26.44"/>
<polygon fill="midnightblue" stroke="midnightblue" points="275.62,-28.93 280.63,-19.59 270.89,-23.77 275.62,-28.93"/>
</g>
<!-- Node7&#45;&gt;Node5 -->
<g id="edge10" class="edge">
<title>Node7&#45;&gt;Node5</title>
<path fill="none" stroke="midnightblue" d="M162.2,-112.36C154.39,-103.54 142.25,-89.28 133,-76 122.28,-60.62 111.64,-42.07 104.36,-28.73"/>
<polygon fill="midnightblue" stroke="midnightblue" points="107.32,-26.83 99.5,-19.68 101.15,-30.15 107.32,-26.83"/>
</g>
<!-- Node8 -->
<g id="node8" class="node">
<title>Node8</title>
<g id="a_node8"><a xlink:href="../../d1/da2/unit_8h.html" target="_top" xlink:title=" ">
<polygon fill="white" stroke="black" points="142,-56.5 142,-75.5 186,-75.5 186,-56.5 142,-56.5"/>
<text text-anchor="middle" x="164" y="-63.5" font-family="Helvetica,sans-Serif" font-size="10.00">unit.h</text>
</a>
</g>
</g>
<!-- Node7&#45;&gt;Node8 -->
<g id="edge11" class="edge">
<title>Node7&#45;&gt;Node8</title>
<path fill="none" stroke="midnightblue" d="M169.01,-112.08C168.21,-104.93 167.07,-94.64 166.08,-85.69"/>
<polygon fill="midnightblue" stroke="midnightblue" points="169.56,-85.3 164.97,-75.75 162.6,-86.08 169.56,-85.3"/>
</g>
<!-- Node8&#45;&gt;Node4 -->
<g id="edge12" class="edge">
<title>Node8&#45;&gt;Node4</title>
<path fill="none" stroke="midnightblue" d="M183.97,-56.44C204.61,-47.6 237.06,-33.69 260.63,-23.59"/>
<polygon fill="midnightblue" stroke="midnightblue" points="262.32,-26.67 270.13,-19.52 259.56,-20.24 262.32,-26.67"/>
</g>
<!-- Node8&#45;&gt;Node5 -->
<g id="edge13" class="edge">
<title>Node8&#45;&gt;Node5</title>
<path fill="none" stroke="midnightblue" d="M152.91,-56.32C142.51,-48.18 126.74,-35.84 114.28,-26.09"/>
<polygon fill="midnightblue" stroke="midnightblue" points="116.32,-23.24 106.29,-19.83 112.01,-28.75 116.32,-23.24"/>
</g>
<!-- Node9&#45;&gt;Node4 -->
<g id="edge18" class="edge">
<title>Node9&#45;&gt;Node4</title>
<path fill="none" stroke="midnightblue" d="M152.61,-224.3C173.87,-191.29 249.8,-73.4 278.71,-28.52"/>
<polygon fill="midnightblue" stroke="midnightblue" points="281.8,-30.19 284.28,-19.88 275.92,-26.4 281.8,-30.19"/>
</g>
<!-- Node9&#45;&gt;Node5 -->
<g id="edge19" class="edge">
<title>Node9&#45;&gt;Node5</title>
<path fill="none" stroke="midnightblue" d="M135.94,-224.48C116.52,-208.73 76.92,-172.91 62,-132 50.42,-100.27 51.49,-88.1 62,-56 65.49,-45.34 72.57,-35.12 79.29,-27.12"/>
<polygon fill="midnightblue" stroke="midnightblue" points="81.9,-29.44 85.98,-19.66 76.7,-24.76 81.9,-29.44"/>
</g>
<!-- Node9&#45;&gt;Node6 -->
<g id="edge15" class="edge">
<title>Node9&#45;&gt;Node6</title>
<path fill="none" stroke="midnightblue" d="M168.07,-224.44C190.06,-215.52 224.73,-201.44 249.66,-191.32"/>
<polygon fill="midnightblue" stroke="midnightblue" points="251.08,-194.52 259.02,-187.52 248.44,-188.04 251.08,-194.52"/>
</g>
<!-- Node9&#45;&gt;Node7 -->
<g id="edge17" class="edge">
<title>Node9&#45;&gt;Node7</title>
<path fill="none" stroke="midnightblue" d="M148.8,-224.37C152.52,-206.62 161.08,-165.67 166.11,-141.6"/>
<polygon fill="midnightblue" stroke="midnightblue" points="169.58,-142.1 168.2,-131.59 162.73,-140.66 169.58,-142.1"/>
</g>
<!-- Node9&#45;&gt;Node8 -->
<g id="edge16" class="edge">
<title>Node9&#45;&gt;Node8</title>
<path fill="none" stroke="midnightblue" d="M143.59,-224.26C136.2,-204.03 120.37,-152.59 133,-112 136.23,-101.62 142.78,-91.52 149.02,-83.53"/>
<polygon fill="midnightblue" stroke="midnightblue" points="151.79,-85.68 155.52,-75.77 146.42,-81.19 151.79,-85.68"/>
</g>
</g>
</svg>
