<?xml version="1.0" encoding="UTF-8" standalone="no"?>
<!DOCTYPE svg PUBLIC "-//W3C//DTD SVG 1.1//EN"
 "http://www.w3.org/Graphics/SVG/1.1/DTD/svg11.dtd">
<!-- Generated by graphviz version 2.43.0 (0)
 -->
<!-- Title: Priest Pages: 1 -->
<svg width="133pt" height="391pt"
 viewBox="0.00 0.00 133.00 391.00" xmlns="http://www.w3.org/2000/svg" xmlns:xlink="http://www.w3.org/1999/xlink">
<g id="graph0" class="graph" transform="scale(1 1) rotate(0) translate(4 387)">
<title>Priest</title>
<polygon fill="white" stroke="transparent" points="-4,4 -4,-387 129,-387 129,4 -4,4"/>
<!-- Node1 -->
<g id="node1" class="node">
<title>Node1</title>
<g id="a_node1"><a xlink:title="Support unit that can create shielded fields (Priest).">
<polygon fill="#bfbfbf" stroke="black" points="18.5,-0.5 18.5,-90.5 106.5,-90.5 106.5,-0.5 18.5,-0.5"/>
<text text-anchor="middle" x="62.5" y="-78.5" font-family="Helvetica,sans-Serif" font-size="10.00">Priest</text>
<polyline fill="none" stroke="black" points="18.5,-71.5 106.5,-71.5 "/>
<text text-anchor="middle" x="62.5" y="-59.5" font-family="Helvetica,sans-Serif" font-size="10.00"> </text>
<polyline fill="none" stroke="black" points="18.5,-52.5 106.5,-52.5 "/>
<text text-anchor="start" x="26.5" y="-40.5" font-family="Helvetica,sans-Serif" font-size="10.00">+ Priest()</text>
<text text-anchor="start" x="26.5" y="-29.5" font-family="Helvetica,sans-Serif" font-size="10.00">+ ~Priest()</text>
<text text-anchor="start" x="26.5" y="-18.5" font-family="Helvetica,sans-Serif" font-size="10.00">+ pray()</text>
<text text-anchor="start" x="26.5" y="-7.5" font-family="Helvetica,sans-Serif" font-size="10.00">+ getSymbol()</text>
</a>
</g>
</g>
<!-- Node2 -->
<g id="node2" class="node">
<title>Node2</title>
<g id="a_node2"><a xlink:href="../../df/dd9/classUnit.html" target="_top" xlink:title="Represents a unit in the game (base class for all units).">
<polygon fill="white" stroke="black" points="0,-127.5 0,-382.5 125,-382.5 125,-127.5 0,-127.5"/>
<text text-anchor="middle" x="62.5" y="-370.5" font-family="Helvetica,sans-Serif" font-size="10.00">Unit</text>
<polyline fill="none" stroke="black" points="0,-363.5 125,-363.5 "/>
<text text-anchor="start" x="8" y="-351.5" font-family="Helvetica,sans-Serif" font-size="10.00"># name</text>
<text text-anchor="start" x="8" y="-340.5" font-family="Helvetica,sans-Serif" font-size="10.00"># moveDistance</text>
<text text-anchor="start" x="8" y="-329.5" font-family="Helvetica,sans-Serif" font-size="10.00"># attackDistance</text>
<text text-anchor="start" x="8" y="-318.5" font-family="Helvetica,sans-Serif" font-size="10.00"># currentHealth</text>
<text text-anchor="start" x="8" y="-307.5" font-family="Helvetica,sans-Serif" font-size="10.00"># maxHealth</text>
<text text-anchor="start" x="8" y="-296.5" font-family="Helvetica,sans-Serif" font-size="10.00"># damage</text>
<text text-anchor="start" x="8" y="-285.5" font-family="Helvetica,sans-Serif" font-size="10.00"># isPlayerUnit</text>
<text text-anchor="start" x="8" y="-274.5" font-family="Helvetica,sans-Serif" font-size="10.00"># currentWill</text>
<text text-anchor="start" x="8" y="-263.5" font-family="Helvetica,sans-Serif" font-size="10.00"># maxWill</text>
<polyline fill="none" stroke="black" points="0,-256.5 125,-256.5 "/>
<text text-anchor="start" x="8" y="-244.5" font-family="Helvetica,sans-Serif" font-size="10.00">+ Unit()</text>
<text text-anchor="start" x="8" y="-233.5" font-family="Helvetica,sans-Serif" font-size="10.00">+ ~Unit()</text>
<text text-anchor="start" x="8" y="-222.5" font-family="Helvetica,sans-Serif" font-size="10.00">+ getName()</text>
<text text-anchor="start" x="8" y="-211.5" font-family="Helvetica,sans-Serif" font-size="10.00">+ getMoveDistance()</text>
<text text-anchor="start" x="8" y="-200.5" font-family="Helvetica,sans-Serif" font-size="10.00">+ getAttackDistance()</text>
<text text-anchor="start" x="8" y="-189.5" font-family="Helvetica,sans-Serif" font-size="10.00">+ getCurrentHealth()</text>
<text text-anchor="start" x="8" y="-178.5" font-family="Helvetica,sans-Serif" font-size="10.00">+ getMaxHealth()</text>
<text text-anchor="start" x="8" y="-167.5" font-family="Helvetica,sans-Serif" font-size="10.00">+ getDamage()</text>
<text text-anchor="start" x="8" y="-156.5" font-family="Helvetica,sans-Serif" font-size="10.00">+ getPlayer()</text>
<text text-anchor="start" x="8" y="-145.5" font-family="Helvetica,sans-Serif" font-size="10.00">+ getWill()</text>
<text text-anchor="start" x="8" y="-134.5" font-family="Helvetica,sans-Serif" font-size="10.00">и 9 больше...</text>
</a>
</g>
</g>
<!-- Node2&#45;&gt;Node1 -->
<g id="edge1" class="edge">
<title>Node2&#45;&gt;Node1</title>
<path fill="none" stroke="midnightblue" d="M62.5,-117.09C62.5,-107.79 62.5,-98.88 62.5,-90.72"/>
<polygon fill="none" stroke="midnightblue" points="59,-117.32 62.5,-127.32 66,-117.32 59,-117.32"/>
</g>
</g>
</svg>
