<?xml version="1.0" encoding="UTF-8" standalone="no"?>
<!DOCTYPE svg PUBLIC "-//W3C//DTD SVG 1.1//EN"
 "http://www.w3.org/Graphics/SVG/1.1/DTD/svg11.dtd">
<!-- Generated by graphviz version 2.43.0 (0)
 -->
<!-- Title: spell.h Pages: 1 -->
<!--zoomable 308 -->
<svg id="main" version="1.1" xmlns="http://www.w3.org/2000/svg" xmlns:xlink="http://www.w3.org/1999/xlink" xml:space="preserve" onload="init(evt)">
<style type="text/css"><![CDATA[
.edge:hover path { stroke: red; }
.edge:hover polygon { stroke: red; fill: red; }
]]></style>
<script type="text/javascript"><![CDATA[
var edges = document.getElementsByTagName('g');
if (edges && edges.length) {
  for (var i=0;i<edges.length;i++) {
    if (edges[i].id.substr(0,4)=='edge') {
      edges[i].setAttribute('class','edge');
    }
  }
}
]]></script>
        <defs>
                <circle id="rim" cx="0" cy="0" r="7"/>
                <circle id="rim2" cx="0" cy="0" r="3.5"/>
                <g id="zoomPlus">
                        <use xlink:href="#rim" fill="#404040">
                                <set attributeName="fill" to="#808080" begin="zoomplus.mouseover" end="zoomplus.mouseout"/>
                        </use>
                        <path d="M-4,0h8M0,-4v8" fill="none" stroke="white" stroke-width="1.5" pointer-events="none"/>
                </g>
                <g id="zoomMin">
                        <use xlink:href="#rim" fill="#404040">
                                <set attributeName="fill" to="#808080" begin="zoomminus.mouseover" end="zoomminus.mouseout"/>
                        </use>
                        <path d="M-4,0h8" fill="none" stroke="white" stroke-width="1.5" pointer-events="none"/>
                </g>
                <g id="dirArrow">
                        <path fill="none" stroke="white" stroke-width="1.5" d="M0,-3.0v7 M-2.5,-0.5L0,-3.0L2.5,-0.5"/>
                </g>
               <g id="resetDef">
                       <use xlink:href="#rim2" fill="#404040">
                               <set attributeName="fill" to="#808080" begin="reset.mouseover" end="reset.mouseout"/>
                       </use>
               </g>
        </defs>

<script type="text/javascript">
var viewWidth = 801;
var viewHeight = 308;
var sectionId = 'dynsection-1';
</script>
<script xlink:href="../../svgpan.js"/>
<svg id="graph" class="graph">
<g id="viewport">
<title>spell.h</title>
<polygon fill="white" stroke="transparent" points="-4,4 -4,-304 797,-304 797,4 -4,4"/>
<!-- Node1 -->
<g id="node1" class="node">
<title>Node1</title>
<g id="a_node1"><a xlink:title=" ">
<polygon fill="#bfbfbf" stroke="black" points="367.5,-280.5 367.5,-299.5 416.5,-299.5 416.5,-280.5 367.5,-280.5"/>
<text text-anchor="middle" x="392" y="-287.5" font-family="Helvetica,sans-Serif" font-size="10.00">spell.h</text>
</a>
</g>
</g>
<!-- Node2 -->
<g id="node2" class="node">
<title>Node2</title>
<g id="a_node2"><a xlink:href="../../de/d59/bombspell_8cpp.html" target="_top" xlink:title=" ">
<polygon fill="white" stroke="black" points="0,-168.5 0,-187.5 88,-187.5 88,-168.5 0,-168.5"/>
<text text-anchor="middle" x="44" y="-175.5" font-family="Helvetica,sans-Serif" font-size="10.00">bombspell.cpp</text>
</a>
</g>
</g>
<!-- Node1&#45;&gt;Node2 -->
<g id="edge1" class="edge">
<title>Node1&#45;&gt;Node2</title>
<path fill="none" stroke="midnightblue" d="M356.96,-288.43C282.98,-286.56 114.04,-278.51 70,-244 52.2,-230.06 46.54,-202.06 44.78,-187.79"/>
<polygon fill="midnightblue" stroke="midnightblue" points="357.08,-291.93 367.16,-288.67 357.24,-284.94 357.08,-291.93"/>
</g>
<!-- Node3 -->
<g id="node3" class="node">
<title>Node3</title>
<g id="a_node3"><a xlink:href="../../d3/d01/bombspell_8h.html" target="_top" xlink:title=" ">
<polygon fill="white" stroke="black" points="79.5,-224.5 79.5,-243.5 156.5,-243.5 156.5,-224.5 79.5,-224.5"/>
<text text-anchor="middle" x="118" y="-231.5" font-family="Helvetica,sans-Serif" font-size="10.00">bombspell.h</text>
</a>
</g>
</g>
<!-- Node1&#45;&gt;Node3 -->
<g id="edge2" class="edge">
<title>Node1&#45;&gt;Node3</title>
<path fill="none" stroke="midnightblue" d="M357.27,-282.15C306.01,-272.05 210.42,-253.21 156.88,-242.66"/>
<polygon fill="midnightblue" stroke="midnightblue" points="356.71,-285.61 367.2,-284.11 358.07,-278.74 356.71,-285.61"/>
</g>
<!-- Node5 -->
<g id="node5" class="node">
<title>Node5</title>
<g id="a_node5"><a xlink:href="../../d9/d42/spells_8h.html" target="_top" xlink:title="Includes all spell types used in the game for easy access and registration.">
<polygon fill="white" stroke="black" points="434,-168.5 434,-187.5 488,-187.5 488,-168.5 434,-168.5"/>
<text text-anchor="middle" x="461" y="-175.5" font-family="Helvetica,sans-Serif" font-size="10.00">spells.h</text>
</a>
</g>
</g>
<!-- Node1&#45;&gt;Node5 -->
<g id="edge29" class="edge">
<title>Node1&#45;&gt;Node5</title>
<path fill="none" stroke="midnightblue" d="M412.75,-274.14C422.54,-266.18 433.65,-255.63 441,-244 452.47,-225.83 457.74,-200.64 459.83,-187.6"/>
<polygon fill="midnightblue" stroke="midnightblue" points="410.39,-271.54 404.61,-280.42 414.67,-277.08 410.39,-271.54"/>
</g>
<!-- Node10 -->
<g id="node10" class="node">
<title>Node10</title>
<g id="a_node10"><a xlink:href="../../d4/d21/cursespell_8cpp.html" target="_top" xlink:title=" ">
<polygon fill="white" stroke="black" points="144,-168.5 144,-187.5 230,-187.5 230,-168.5 144,-168.5"/>
<text text-anchor="middle" x="187" y="-175.5" font-family="Helvetica,sans-Serif" font-size="10.00">cursespell.cpp</text>
</a>
</g>
</g>
<!-- Node1&#45;&gt;Node10 -->
<g id="edge13" class="edge">
<title>Node1&#45;&gt;Node10</title>
<path fill="none" stroke="midnightblue" d="M357.23,-289.58C317.16,-288.37 251.63,-280.39 211,-244 194.33,-229.07 189.22,-201.52 187.66,-187.57"/>
<polygon fill="midnightblue" stroke="midnightblue" points="357.26,-293.08 367.32,-289.75 357.38,-286.08 357.26,-293.08"/>
</g>
<!-- Node11 -->
<g id="node11" class="node">
<title>Node11</title>
<g id="a_node11"><a xlink:href="../../d8/d7b/cursespell_8h.html" target="_top" xlink:title=" ">
<polygon fill="white" stroke="black" points="220.5,-224.5 220.5,-243.5 295.5,-243.5 295.5,-224.5 220.5,-224.5"/>
<text text-anchor="middle" x="258" y="-231.5" font-family="Helvetica,sans-Serif" font-size="10.00">cursespell.h</text>
</a>
</g>
</g>
<!-- Node1&#45;&gt;Node11 -->
<g id="edge14" class="edge">
<title>Node1&#45;&gt;Node11</title>
<path fill="none" stroke="midnightblue" d="M361.32,-276.64C336.18,-266.5 301.25,-252.43 279.13,-243.52"/>
<polygon fill="midnightblue" stroke="midnightblue" points="360.18,-279.95 370.77,-280.44 362.8,-273.46 360.18,-279.95"/>
</g>
<!-- Node12 -->
<g id="node12" class="node">
<title>Node12</title>
<g id="a_node12"><a xlink:href="../../da/def/fireballspell_8cpp.html" target="_top" xlink:title=" ">
<polygon fill="white" stroke="black" points="660,-168.5 660,-187.5 754,-187.5 754,-168.5 660,-168.5"/>
<text text-anchor="middle" x="707" y="-175.5" font-family="Helvetica,sans-Serif" font-size="10.00">fireballspell.cpp</text>
</a>
</g>
</g>
<!-- Node1&#45;&gt;Node12 -->
<g id="edge18" class="edge">
<title>Node1&#45;&gt;Node12</title>
<path fill="none" stroke="midnightblue" d="M427.02,-288.13C496.31,-285.71 647.55,-276.72 686,-244 702.8,-229.7 706.27,-201.87 706.92,-187.72"/>
<polygon fill="midnightblue" stroke="midnightblue" points="426.51,-284.64 416.63,-288.47 426.74,-291.64 426.51,-284.64"/>
</g>
<!-- Node13 -->
<g id="node13" class="node">
<title>Node13</title>
<g id="a_node13"><a xlink:href="../../d5/d5d/fireballspell_8h.html" target="_top" xlink:title=" ">
<polygon fill="white" stroke="black" points="593.5,-224.5 593.5,-243.5 676.5,-243.5 676.5,-224.5 593.5,-224.5"/>
<text text-anchor="middle" x="635" y="-231.5" font-family="Helvetica,sans-Serif" font-size="10.00">fireballspell.h</text>
</a>
</g>
</g>
<!-- Node1&#45;&gt;Node13 -->
<g id="edge19" class="edge">
<title>Node1&#45;&gt;Node13</title>
<path fill="none" stroke="midnightblue" d="M426.49,-281.34C471.36,-271.36 549.54,-253.99 596.37,-243.59"/>
<polygon fill="midnightblue" stroke="midnightblue" points="425.64,-277.94 416.64,-283.53 427.16,-284.77 425.64,-277.94"/>
</g>
<!-- Node14 -->
<g id="node14" class="node">
<title>Node14</title>
<g id="a_node14"><a xlink:href="../../d1/d55/morogspell_8cpp.html" target="_top" xlink:title=" ">
<polygon fill="white" stroke="black" points="286,-168.5 286,-187.5 378,-187.5 378,-168.5 286,-168.5"/>
<text text-anchor="middle" x="332" y="-175.5" font-family="Helvetica,sans-Serif" font-size="10.00">morogspell.cpp</text>
</a>
</g>
</g>
<!-- Node1&#45;&gt;Node14 -->
<g id="edge23" class="edge">
<title>Node1&#45;&gt;Node14</title>
<path fill="none" stroke="midnightblue" d="M370.2,-274.22C360.35,-266.39 349.48,-255.93 343,-244 333.05,-225.7 331.69,-200.57 331.73,-187.57"/>
<polygon fill="midnightblue" stroke="midnightblue" points="368.35,-277.21 378.46,-280.39 372.54,-271.6 368.35,-277.21"/>
</g>
<!-- Node15 -->
<g id="node15" class="node">
<title>Node15</title>
<g id="a_node15"><a xlink:href="../../db/daa/morogspell_8h.html" target="_top" xlink:title=" ">
<polygon fill="white" stroke="black" points="352,-224.5 352,-243.5 432,-243.5 432,-224.5 352,-224.5"/>
<text text-anchor="middle" x="392" y="-231.5" font-family="Helvetica,sans-Serif" font-size="10.00">morogspell.h</text>
</a>
</g>
</g>
<!-- Node1&#45;&gt;Node15 -->
<g id="edge24" class="edge">
<title>Node1&#45;&gt;Node15</title>
<path fill="none" stroke="midnightblue" d="M392,-269.8C392,-260.91 392,-250.78 392,-243.75"/>
<polygon fill="midnightblue" stroke="midnightblue" points="388.5,-270.08 392,-280.08 395.5,-270.08 388.5,-270.08"/>
</g>
<!-- Node16 -->
<g id="node16" class="node">
<title>Node16</title>
<g id="a_node16"><a xlink:href="../../d2/d47/spell_8cpp.html" target="_top" xlink:title=" ">
<polygon fill="white" stroke="black" points="733,-224.5 733,-243.5 793,-243.5 793,-224.5 733,-224.5"/>
<text text-anchor="middle" x="763" y="-231.5" font-family="Helvetica,sans-Serif" font-size="10.00">spell.cpp</text>
</a>
</g>
</g>
<!-- Node1&#45;&gt;Node16 -->
<g id="edge28" class="edge">
<title>Node1&#45;&gt;Node16</title>
<path fill="none" stroke="midnightblue" d="M426.74,-284.97C486.6,-277.86 612.96,-262.12 719,-244 723.46,-243.24 728.15,-242.36 732.75,-241.46"/>
<polygon fill="midnightblue" stroke="midnightblue" points="426.22,-281.51 416.7,-286.16 427.04,-288.46 426.22,-281.51"/>
</g>
<!-- Node17 -->
<g id="node17" class="node">
<title>Node17</title>
<g id="a_node17"><a xlink:href="../../df/db2/teleportspell_8h.html" target="_top" xlink:title=" ">
<polygon fill="white" stroke="black" points="488.5,-224.5 488.5,-243.5 575.5,-243.5 575.5,-224.5 488.5,-224.5"/>
<text text-anchor="middle" x="532" y="-231.5" font-family="Helvetica,sans-Serif" font-size="10.00">teleportspell.h</text>
</a>
</g>
</g>
<!-- Node1&#45;&gt;Node17 -->
<g id="edge30" class="edge">
<title>Node1&#45;&gt;Node17</title>
<path fill="none" stroke="midnightblue" d="M423.7,-276.77C450,-266.63 486.72,-252.47 509.92,-243.52"/>
<polygon fill="midnightblue" stroke="midnightblue" points="422.25,-273.58 414.18,-280.44 424.77,-280.11 422.25,-273.58"/>
</g>
<!-- Node3&#45;&gt;Node2 -->
<g id="edge4" class="edge">
<title>Node3&#45;&gt;Node2</title>
<path fill="none" stroke="midnightblue" d="M97.97,-218.38C84.59,-208.62 67.44,-196.11 56.11,-187.83"/>
<polygon fill="midnightblue" stroke="midnightblue" points="95.97,-221.26 106.11,-224.32 100.1,-215.6 95.97,-221.26"/>
</g>
<!-- Node4 -->
<g id="node4" class="node">
<title>Node4</title>
<g id="a_node4"><a xlink:href="../../d0/d77/AI_8cpp.html" target="_top" xlink:title=" ">
<polygon fill="white" stroke="black" points="382.5,-112.5 382.5,-131.5 429.5,-131.5 429.5,-112.5 382.5,-112.5"/>
<text text-anchor="middle" x="406" y="-119.5" font-family="Helvetica,sans-Serif" font-size="10.00">AI.cpp</text>
</a>
</g>
</g>
<!-- Node3&#45;&gt;Node4 -->
<g id="edge3" class="edge">
<title>Node3&#45;&gt;Node4</title>
<path fill="none" stroke="midnightblue" d="M117.71,-214.33C118.55,-199.6 122.23,-179.65 135,-168 171.11,-135.05 323.17,-126.01 382.32,-123.72"/>
<polygon fill="midnightblue" stroke="midnightblue" points="114.21,-214.29 117.52,-224.36 121.21,-214.43 114.21,-214.29"/>
</g>
<!-- Node3&#45;&gt;Node5 -->
<g id="edge5" class="edge">
<title>Node3&#45;&gt;Node5</title>
<path fill="none" stroke="midnightblue" d="M166.57,-225.35C239.73,-213.83 375.81,-192.41 433.74,-183.29"/>
<polygon fill="midnightblue" stroke="midnightblue" points="166.01,-221.9 156.68,-226.91 167.1,-228.81 166.01,-221.9"/>
</g>
<!-- Node5&#45;&gt;Node4 -->
<g id="edge6" class="edge">
<title>Node5&#45;&gt;Node4</title>
<path fill="none" stroke="midnightblue" d="M444.71,-161C434.96,-151.43 422.95,-139.64 414.91,-131.75"/>
<polygon fill="midnightblue" stroke="midnightblue" points="442.33,-163.57 451.92,-168.08 447.23,-158.58 442.33,-163.57"/>
</g>
<!-- Node6 -->
<g id="node6" class="node">
<title>Node6</title>
<g id="a_node6"><a xlink:href="../../d9/deb/getcommands_8cpp.html" target="_top" xlink:title=" ">
<polygon fill="white" stroke="black" points="400.5,-56.5 400.5,-75.5 507.5,-75.5 507.5,-56.5 400.5,-56.5"/>
<text text-anchor="middle" x="454" y="-63.5" font-family="Helvetica,sans-Serif" font-size="10.00">getcommands.cpp</text>
</a>
</g>
</g>
<!-- Node5&#45;&gt;Node6 -->
<g id="edge7" class="edge">
<title>Node5&#45;&gt;Node6</title>
<path fill="none" stroke="midnightblue" d="M459.81,-158.35C458.28,-134.25 455.67,-93.31 454.55,-75.59"/>
<polygon fill="midnightblue" stroke="midnightblue" points="456.32,-158.61 460.45,-168.37 463.31,-158.17 456.32,-158.61"/>
</g>
<!-- Node7 -->
<g id="node7" class="node">
<title>Node7</title>
<g id="a_node7"><a xlink:href="../../d2/d66/getcommands_8h.html" target="_top" xlink:title=" ">
<polygon fill="white" stroke="black" points="497.5,-112.5 497.5,-131.5 592.5,-131.5 592.5,-112.5 497.5,-112.5"/>
<text text-anchor="middle" x="545" y="-119.5" font-family="Helvetica,sans-Serif" font-size="10.00">getcommands.h</text>
</a>
</g>
</g>
<!-- Node5&#45;&gt;Node7 -->
<g id="edge8" class="edge">
<title>Node5&#45;&gt;Node7</title>
<path fill="none" stroke="midnightblue" d="M482.93,-162.9C498.34,-153 518.45,-140.07 531.54,-131.65"/>
<polygon fill="midnightblue" stroke="midnightblue" points="481.02,-159.97 474.5,-168.32 484.8,-165.86 481.02,-159.97"/>
</g>
<!-- Node7&#45;&gt;Node6 -->
<g id="edge9" class="edge">
<title>Node7&#45;&gt;Node6</title>
<path fill="none" stroke="midnightblue" d="M521.71,-107.18C504.96,-97.24 482.9,-84.15 468.58,-75.65"/>
<polygon fill="midnightblue" stroke="midnightblue" points="519.99,-110.23 530.38,-112.32 523.57,-104.21 519.99,-110.23"/>
</g>
<!-- Node8 -->
<g id="node8" class="node">
<title>Node8</title>
<g id="a_node8"><a xlink:href="../../df/d0a/main_8cpp.html" target="_top" xlink:title=" ">
<polygon fill="white" stroke="black" points="546,-0.5 546,-19.5 608,-19.5 608,-0.5 546,-0.5"/>
<text text-anchor="middle" x="577" y="-7.5" font-family="Helvetica,sans-Serif" font-size="10.00">main.cpp</text>
</a>
</g>
</g>
<!-- Node7&#45;&gt;Node8 -->
<g id="edge10" class="edge">
<title>Node7&#45;&gt;Node8</title>
<path fill="none" stroke="midnightblue" d="M563.79,-105.66C571.97,-97.76 580.66,-87.4 585,-76 592.27,-56.87 585.36,-32.51 580.62,-19.73"/>
<polygon fill="midnightblue" stroke="midnightblue" points="561.36,-103.14 556.27,-112.43 566.04,-108.34 561.36,-103.14"/>
</g>
<!-- Node9 -->
<g id="node9" class="node">
<title>Node9</title>
<g id="a_node9"><a xlink:href="../../d4/dbf/main_8h.html" target="_top" xlink:title=" ">
<polygon fill="white" stroke="black" points="526,-56.5 526,-75.5 576,-75.5 576,-56.5 526,-56.5"/>
<text text-anchor="middle" x="551" y="-63.5" font-family="Helvetica,sans-Serif" font-size="10.00">main.h</text>
</a>
</g>
</g>
<!-- Node7&#45;&gt;Node9 -->
<g id="edge11" class="edge">
<title>Node7&#45;&gt;Node9</title>
<path fill="none" stroke="midnightblue" d="M547.1,-102.1C548.1,-93.14 549.24,-82.86 550.03,-75.75"/>
<polygon fill="midnightblue" stroke="midnightblue" points="543.62,-101.76 545.99,-112.08 550.57,-102.53 543.62,-101.76"/>
</g>
<!-- Node9&#45;&gt;Node8 -->
<g id="edge12" class="edge">
<title>Node9&#45;&gt;Node8</title>
<path fill="none" stroke="midnightblue" d="M559.67,-46.98C564.09,-37.82 569.25,-27.09 572.79,-19.75"/>
<polygon fill="midnightblue" stroke="midnightblue" points="556.48,-45.55 555.29,-56.08 562.79,-48.59 556.48,-45.55"/>
</g>
<!-- Node11&#45;&gt;Node4 -->
<g id="edge15" class="edge">
<title>Node11&#45;&gt;Node4</title>
<path fill="none" stroke="midnightblue" d="M258.99,-213.96C260.71,-199.62 265.24,-180.38 277,-168 305.02,-138.51 353.39,-128.34 382.27,-124.83"/>
<polygon fill="midnightblue" stroke="midnightblue" points="255.48,-213.93 258.13,-224.19 262.46,-214.52 255.48,-213.93"/>
</g>
<!-- Node11&#45;&gt;Node5 -->
<g id="edge17" class="edge">
<title>Node11&#45;&gt;Node5</title>
<path fill="none" stroke="midnightblue" d="M299.94,-221.84C340.11,-211.16 399.54,-195.35 433.86,-186.22"/>
<polygon fill="midnightblue" stroke="midnightblue" points="298.93,-218.49 290.17,-224.44 300.73,-225.26 298.93,-218.49"/>
</g>
<!-- Node11&#45;&gt;Node10 -->
<g id="edge16" class="edge">
<title>Node11&#45;&gt;Node10</title>
<path fill="none" stroke="midnightblue" d="M238.41,-218.1C225.63,-208.38 209.39,-196.03 198.61,-187.83"/>
<polygon fill="midnightblue" stroke="midnightblue" points="236.51,-221.06 246.59,-224.32 240.75,-215.48 236.51,-221.06"/>
</g>
<!-- Node13&#45;&gt;Node4 -->
<g id="edge20" class="edge">
<title>Node13&#45;&gt;Node4</title>
<path fill="none" stroke="midnightblue" d="M633.59,-214.39C631.46,-199.7 626.17,-179.77 613,-168 585.99,-143.86 477.97,-130.23 429.61,-125.22"/>
<polygon fill="midnightblue" stroke="midnightblue" points="630.11,-214.83 634.67,-224.39 637.07,-214.07 630.11,-214.83"/>
</g>
<!-- Node13&#45;&gt;Node5 -->
<g id="edge22" class="edge">
<title>Node13&#45;&gt;Node5</title>
<path fill="none" stroke="midnightblue" d="M597.71,-221.43C564.8,-211.21 517.6,-196.57 488.16,-187.43"/>
<polygon fill="midnightblue" stroke="midnightblue" points="596.84,-224.82 607.43,-224.44 598.92,-218.14 596.84,-224.82"/>
</g>
<!-- Node13&#45;&gt;Node12 -->
<g id="edge21" class="edge">
<title>Node13&#45;&gt;Node12</title>
<path fill="none" stroke="midnightblue" d="M654.87,-218.1C667.82,-208.38 684.3,-196.03 695.22,-187.83"/>
<polygon fill="midnightblue" stroke="midnightblue" points="652.47,-215.52 646.57,-224.32 656.67,-221.12 652.47,-215.52"/>
</g>
<!-- Node15&#45;&gt;Node4 -->
<g id="edge25" class="edge">
<title>Node15&#45;&gt;Node4</title>
<path fill="none" stroke="midnightblue" d="M394.37,-214.35C397.44,-190.25 402.65,-149.31 404.91,-131.59"/>
<polygon fill="midnightblue" stroke="midnightblue" points="390.89,-214.01 393.1,-224.37 397.83,-214.89 390.89,-214.01"/>
</g>
<!-- Node15&#45;&gt;Node5 -->
<g id="edge27" class="edge">
<title>Node15&#45;&gt;Node5</title>
<path fill="none" stroke="midnightblue" d="M411.04,-218.1C423.46,-208.38 439.24,-196.03 449.71,-187.83"/>
<polygon fill="midnightblue" stroke="midnightblue" points="408.8,-215.4 403.09,-224.32 413.12,-220.92 408.8,-215.4"/>
</g>
<!-- Node15&#45;&gt;Node14 -->
<g id="edge26" class="edge">
<title>Node15&#45;&gt;Node14</title>
<path fill="none" stroke="midnightblue" d="M374.82,-217.54C364.12,-207.91 350.74,-195.87 341.82,-187.83"/>
<polygon fill="midnightblue" stroke="midnightblue" points="372.59,-220.24 382.36,-224.32 377.27,-215.03 372.59,-220.24"/>
</g>
<!-- Node17&#45;&gt;Node5 -->
<g id="edge31" class="edge">
<title>Node17&#45;&gt;Node5</title>
<path fill="none" stroke="midnightblue" d="M512.41,-218.1C499.63,-208.38 483.39,-196.03 472.61,-187.83"/>
<polygon fill="midnightblue" stroke="midnightblue" points="510.51,-221.06 520.59,-224.32 514.75,-215.48 510.51,-221.06"/>
</g>
<!-- Node18 -->
<g id="node18" class="node">
<title>Node18</title>
<g id="a_node18"><a xlink:href="../../d6/d16/teleportspell_8cpp.html" target="_top" xlink:title=" ">
<polygon fill="white" stroke="black" points="506,-168.5 506,-187.5 604,-187.5 604,-168.5 506,-168.5"/>
<text text-anchor="middle" x="555" y="-175.5" font-family="Helvetica,sans-Serif" font-size="10.00">teleportspell.cpp</text>
</a>
</g>
</g>
<!-- Node17&#45;&gt;Node18 -->
<g id="edge32" class="edge">
<title>Node17&#45;&gt;Node18</title>
<path fill="none" stroke="midnightblue" d="M539.8,-214.69C543.68,-205.59 548.18,-195.01 551.27,-187.75"/>
<polygon fill="midnightblue" stroke="midnightblue" points="536.5,-213.51 535.8,-224.08 542.94,-216.25 536.5,-213.51"/>
</g>
</g>
</svg>
        <g id="navigator" transform="translate(0 0)" fill="#404254">
                <rect fill="#f2f5e9" fill-opacity="0.5" stroke="#606060" stroke-width=".5" x="0" y="0" width="60" height="60"/>
                <use id="zoomplus" xlink:href="#zoomPlus" x="17" y="9" onmousedown="handleZoom(evt,'in')"/>
                <use id="zoomminus" xlink:href="#zoomMin" x="42" y="9" onmousedown="handleZoom(evt,'out')"/>
                <use id="reset" xlink:href="#resetDef" x="30" y="36" onmousedown="handleReset()"/>
                <g id="arrowUp" xlink:href="#dirArrow" transform="translate(30 24)" onmousedown="handlePan(0,-1)">
                  <use xlink:href="#rim" fill="#404040">
                        <set attributeName="fill" to="#808080" begin="arrowUp.mouseover" end="arrowUp.mouseout"/>
                  </use>
                  <path fill="none" stroke="white" stroke-width="1.5" d="M0,-3.0v7 M-2.5,-0.5L0,-3.0L2.5,-0.5"/>
                </g>
                <g id="arrowRight" xlink:href="#dirArrow" transform="rotate(90) translate(36 -43)" onmousedown="handlePan(1,0)">
                  <use xlink:href="#rim" fill="#404040">
                        <set attributeName="fill" to="#808080" begin="arrowRight.mouseover" end="arrowRight.mouseout"/>
                  </use>
                  <path fill="none" stroke="white" stroke-width="1.5" d="M0,-3.0v7 M-2.5,-0.5L0,-3.0L2.5,-0.5"/>
                </g>
                <g id="arrowDown" xlink:href="#dirArrow" transform="rotate(180) translate(-30 -48)" onmousedown="handlePan(0,1)">
                  <use xlink:href="#rim" fill="#404040">
                        <set attributeName="fill" to="#808080" begin="arrowDown.mouseover" end="arrowDown.mouseout"/>
                  </use>
                  <path fill="none" stroke="white" stroke-width="1.5" d="M0,-3.0v7 M-2.5,-0.5L0,-3.0L2.5,-0.5"/>
                </g>
                <g id="arrowLeft" xlink:href="#dirArrow" transform="rotate(270) translate(-36 17)" onmousedown="handlePan(-1,0)">
                  <use xlink:href="#rim" fill="#404040">
                        <set attributeName="fill" to="#808080" begin="arrowLeft.mouseover" end="arrowLeft.mouseout"/>
                  </use>
                  <path fill="none" stroke="white" stroke-width="1.5" d="M0,-3.0v7 M-2.5,-0.5L0,-3.0L2.5,-0.5"/>
                </g>
        </g>
        <svg viewBox="0 0 15 15" width="100%" height="30px" preserveAspectRatio="xMaxYMin meet">
         <g id="arrow_out" transform="scale(0.3 0.3)">
          <a xlink:href="spell_8h__dep__incl_org.svg" target="_base">
           <rect id="button" ry="5" rx="5" y="6" x="6" height="38" width="38"
                fill="#f2f5e9" fill-opacity="0.5" stroke="#606060" stroke-width="1.0"/>
           <path id="arrow"
             d="M 11.500037,31.436501 C 11.940474,20.09759 22.043105,11.32322 32.158766,21.979434 L 37.068811,17.246167 C 37.068811,17.246167 37.088388,32 37.088388,32 L 22.160133,31.978069 C 22.160133,31.978069 26.997745,27.140456 26.997745,27.140456 C 18.528582,18.264221 13.291696,25.230495 11.500037,31.436501 z"
             style="fill:#404040;"/>
          </a>
         </g>
        </svg>
</svg>
