<?xml version="1.0" encoding="UTF-8" standalone="no"?>
<!DOCTYPE svg PUBLIC "-//W3C//DTD SVG 1.1//EN"
 "http://www.w3.org/Graphics/SVG/1.1/DTD/svg11.dtd">
<!-- Generated by graphviz version 2.43.0 (0)
 -->
<!-- Title: functions.cpp Pages: 1 -->
<!--zoomable 364 -->
<svg id="main" version="1.1" xmlns="http://www.w3.org/2000/svg" xmlns:xlink="http://www.w3.org/1999/xlink" xml:space="preserve" onload="init(evt)">
<style type="text/css"><![CDATA[
.edge:hover path { stroke: red; }
.edge:hover polygon { stroke: red; fill: red; }
]]></style>
<script type="text/javascript"><![CDATA[
var edges = document.getElementsByTagName('g');
if (edges && edges.length) {
  for (var i=0;i<edges.length;i++) {
    if (edges[i].id.substr(0,4)=='edge') {
      edges[i].setAttribute('class','edge');
    }
  }
}
]]></script>
        <defs>
                <circle id="rim" cx="0" cy="0" r="7"/>
                <circle id="rim2" cx="0" cy="0" r="3.5"/>
                <g id="zoomPlus">
                        <use xlink:href="#rim" fill="#404040">
                                <set attributeName="fill" to="#808080" begin="zoomplus.mouseover" end="zoomplus.mouseout"/>
                        </use>
                        <path d="M-4,0h8M0,-4v8" fill="none" stroke="white" stroke-width="1.5" pointer-events="none"/>
                </g>
                <g id="zoomMin">
                        <use xlink:href="#rim" fill="#404040">
                                <set attributeName="fill" to="#808080" begin="zoomminus.mouseover" end="zoomminus.mouseout"/>
                        </use>
                        <path d="M-4,0h8" fill="none" stroke="white" stroke-width="1.5" pointer-events="none"/>
                </g>
                <g id="dirArrow">
                        <path fill="none" stroke="white" stroke-width="1.5" d="M0,-3.0v7 M-2.5,-0.5L0,-3.0L2.5,-0.5"/>
                </g>
               <g id="resetDef">
                       <use xlink:href="#rim2" fill="#404040">
                               <set attributeName="fill" to="#808080" begin="reset.mouseover" end="reset.mouseout"/>
                       </use>
               </g>
        </defs>

<script type="text/javascript">
var viewWidth = 1282;
var viewHeight = 364;
var sectionId = 'dynsection-0';
</script>
<script xlink:href="../../svgpan.js"/>
<svg id="graph" class="graph">
<g id="viewport">
<title>functions.cpp</title>
<polygon fill="white" stroke="transparent" points="-4,4 -4,-360 1278.19,-360 1278.19,4 -4,4"/>
<!-- Node1 -->
<g id="node1" class="node">
<title>Node1</title>
<g id="a_node1"><a xlink:title=" ">
<polygon fill="#bfbfbf" stroke="black" points="537.19,-336.5 537.19,-355.5 619.19,-355.5 619.19,-336.5 537.19,-336.5"/>
<text text-anchor="middle" x="578.19" y="-343.5" font-family="Helvetica,sans-Serif" font-size="10.00">functions.cpp</text>
</a>
</g>
</g>
<!-- Node2 -->
<g id="node2" class="node">
<title>Node2</title>
<g id="a_node2"><a xlink:href="../../d8/d5c/functions_8h.html" target="_top" xlink:title=" ">
<polygon fill="white" stroke="black" points="574.69,-280.5 574.69,-299.5 645.69,-299.5 645.69,-280.5 574.69,-280.5"/>
<text text-anchor="middle" x="610.19" y="-287.5" font-family="Helvetica,sans-Serif" font-size="10.00">functions.h</text>
</a>
</g>
</g>
<!-- Node1&#45;&gt;Node2 -->
<g id="edge1" class="edge">
<title>Node1&#45;&gt;Node2</title>
<path fill="none" stroke="midnightblue" d="M583.48,-336.08C587.91,-328.61 594.36,-317.72 599.81,-308.52"/>
<polygon fill="midnightblue" stroke="midnightblue" points="602.92,-310.14 605.01,-299.75 596.9,-306.57 602.92,-310.14"/>
</g>
<!-- Node3 -->
<g id="node3" class="node">
<title>Node3</title>
<g id="a_node3"><a xlink:title=" ">
<polygon fill="white" stroke="#bfbfbf" points="908.69,-0.5 908.69,-19.5 955.69,-19.5 955.69,-0.5 908.69,-0.5"/>
<text text-anchor="middle" x="932.19" y="-7.5" font-family="Helvetica,sans-Serif" font-size="10.00">vector</text>
</a>
</g>
</g>
<!-- Node1&#45;&gt;Node3 -->
<g id="edge64" class="edge">
<title>Node1&#45;&gt;Node3</title>
<path fill="none" stroke="midnightblue" d="M619.24,-341.89C755.18,-331.03 1182.19,-292.36 1182.19,-235 1182.19,-235 1182.19,-235 1182.19,-121 1182.19,-27.6 1034.21,-12.81 965.95,-10.95"/>
<polygon fill="midnightblue" stroke="midnightblue" points="965.78,-7.45 955.71,-10.75 965.64,-14.45 965.78,-7.45"/>
</g>
<!-- Node4 -->
<g id="node4" class="node">
<title>Node4</title>
<g id="a_node4"><a xlink:href="../../d5/d5a/field_8h.html" target="_top" xlink:title=" ">
<polygon fill="white" stroke="black" points="320.69,-168.5 320.69,-187.5 367.69,-187.5 367.69,-168.5 320.69,-168.5"/>
<text text-anchor="middle" x="344.19" y="-175.5" font-family="Helvetica,sans-Serif" font-size="10.00">field.h</text>
</a>
</g>
</g>
<!-- Node1&#45;&gt;Node4 -->
<g id="edge48" class="edge">
<title>Node1&#45;&gt;Node4</title>
<path fill="none" stroke="midnightblue" d="M537.45,-336.44C489.33,-324.22 410.15,-297.1 365.19,-244 354.07,-230.86 348.81,-211.72 346.34,-197.61"/>
<polygon fill="midnightblue" stroke="midnightblue" points="349.79,-196.98 344.9,-187.58 342.86,-197.98 349.79,-196.98"/>
</g>
<!-- Node6 -->
<g id="node6" class="node">
<title>Node6</title>
<g id="a_node6"><a xlink:href="../../d3/d62/player_8h.html" target="_top" xlink:title=" ">
<polygon fill="white" stroke="black" points="363.19,-112.5 363.19,-131.5 419.19,-131.5 419.19,-112.5 363.19,-112.5"/>
<text text-anchor="middle" x="391.19" y="-119.5" font-family="Helvetica,sans-Serif" font-size="10.00">player.h</text>
</a>
</g>
</g>
<!-- Node1&#45;&gt;Node6 -->
<g id="edge50" class="edge">
<title>Node1&#45;&gt;Node6</title>
<path fill="none" stroke="midnightblue" d="M536.74,-343.13C481.64,-339.56 381.95,-329.28 302.19,-300 256.9,-283.37 232.93,-286 209.19,-244 204.82,-236.26 205.04,-231.86 209.19,-224 237.92,-169.6 308.92,-142.89 353.27,-131.09"/>
<polygon fill="midnightblue" stroke="midnightblue" points="354.28,-134.45 363.12,-128.6 352.57,-127.66 354.28,-134.45"/>
</g>
<!-- Node7 -->
<g id="node7" class="node">
<title>Node7</title>
<g id="a_node7"><a xlink:href="../../d1/da2/unit_8h.html" target="_top" xlink:title=" ">
<polygon fill="white" stroke="black" points="595.19,-56.5 595.19,-75.5 639.19,-75.5 639.19,-56.5 595.19,-56.5"/>
<text text-anchor="middle" x="617.19" y="-63.5" font-family="Helvetica,sans-Serif" font-size="10.00">unit.h</text>
</a>
</g>
</g>
<!-- Node1&#45;&gt;Node7 -->
<g id="edge49" class="edge">
<title>Node1&#45;&gt;Node7</title>
<path fill="none" stroke="midnightblue" d="M536.95,-343.37C436.88,-339.06 183.53,-325.84 103.19,-300 51.39,-283.33 -22.36,-269.7 7.19,-224 73.09,-122.1 139.35,-144.76 256.19,-112 374.33,-78.88 521.05,-70.11 584.95,-67.81"/>
<polygon fill="midnightblue" stroke="midnightblue" points="585.3,-71.3 595.18,-67.47 585.07,-64.3 585.3,-71.3"/>
</g>
<!-- Node8 -->
<g id="node8" class="node">
<title>Node8</title>
<g id="a_node8"><a xlink:href="../../d4/d43/fortress_8h.html" target="_top" xlink:title=" ">
<polygon fill="white" stroke="black" points="374.69,-224.5 374.69,-243.5 437.69,-243.5 437.69,-224.5 374.69,-224.5"/>
<text text-anchor="middle" x="406.19" y="-231.5" font-family="Helvetica,sans-Serif" font-size="10.00">fortress.h</text>
</a>
</g>
</g>
<!-- Node1&#45;&gt;Node8 -->
<g id="edge51" class="edge">
<title>Node1&#45;&gt;Node8</title>
<path fill="none" stroke="midnightblue" d="M564.7,-336.37C535.18,-317.49 464.65,-272.38 428.46,-249.24"/>
<polygon fill="midnightblue" stroke="midnightblue" points="429.94,-246.03 419.63,-243.59 426.17,-251.93 429.94,-246.03"/>
</g>
<!-- Node9 -->
<g id="node9" class="node">
<title>Node9</title>
<g id="a_node9"><a xlink:href="../../d6/dad/hill_8h.html" target="_top" xlink:title=" ">
<polygon fill="white" stroke="black" points="16.69,-224.5 16.69,-243.5 57.69,-243.5 57.69,-224.5 16.69,-224.5"/>
<text text-anchor="middle" x="37.19" y="-231.5" font-family="Helvetica,sans-Serif" font-size="10.00">hill.h</text>
</a>
</g>
</g>
<!-- Node1&#45;&gt;Node9 -->
<g id="edge52" class="edge">
<title>Node1&#45;&gt;Node9</title>
<path fill="none" stroke="midnightblue" d="M537.1,-342.92C444.08,-337.85 219.87,-323.52 148.19,-300 113.29,-288.55 77.41,-264.97 56.22,-249.59"/>
<polygon fill="midnightblue" stroke="midnightblue" points="58.2,-246.7 48.09,-243.55 54.03,-252.32 58.2,-246.7"/>
</g>
<!-- Node10 -->
<g id="node10" class="node">
<title>Node10</title>
<g id="a_node10"><a xlink:title=" ">
<polygon fill="white" stroke="#bfbfbf" points="856.19,-224.5 856.19,-243.5 916.19,-243.5 916.19,-224.5 856.19,-224.5"/>
<text text-anchor="middle" x="886.19" y="-231.5" font-family="Helvetica,sans-Serif" font-size="10.00">iostream</text>
</a>
</g>
</g>
<!-- Node1&#45;&gt;Node10 -->
<g id="edge63" class="edge">
<title>Node1&#45;&gt;Node10</title>
<path fill="none" stroke="midnightblue" d="M602.11,-336.46C656.58,-317.01 790,-269.36 852.66,-246.98"/>
<polygon fill="midnightblue" stroke="midnightblue" points="853.85,-250.27 862.09,-243.61 851.49,-243.68 853.85,-250.27"/>
</g>
<!-- Node11 -->
<g id="node11" class="node">
<title>Node11</title>
<g id="a_node11"><a xlink:title=" ">
<polygon fill="white" stroke="#bfbfbf" points="934.69,-224.5 934.69,-243.5 981.69,-243.5 981.69,-224.5 934.69,-224.5"/>
<text text-anchor="middle" x="958.19" y="-231.5" font-family="Helvetica,sans-Serif" font-size="10.00">cmath</text>
</a>
</g>
</g>
<!-- Node1&#45;&gt;Node11 -->
<g id="edge65" class="edge">
<title>Node1&#45;&gt;Node11</title>
<path fill="none" stroke="midnightblue" d="M611.44,-336.47C645.41,-327.67 699.61,-313.37 746.19,-300 809.6,-281.79 883.12,-258.83 924.8,-245.64"/>
<polygon fill="midnightblue" stroke="midnightblue" points="925.96,-248.95 934.43,-242.59 923.84,-242.28 925.96,-248.95"/>
</g>
<!-- Node12 -->
<g id="node12" class="node">
<title>Node12</title>
<g id="a_node12"><a xlink:title=" ">
<polygon fill="white" stroke="#bfbfbf" points="1000.19,-224.5 1000.19,-243.5 1056.19,-243.5 1056.19,-224.5 1000.19,-224.5"/>
<text text-anchor="middle" x="1028.19" y="-231.5" font-family="Helvetica,sans-Serif" font-size="10.00">iomanip</text>
</a>
</g>
</g>
<!-- Node1&#45;&gt;Node12 -->
<g id="edge67" class="edge">
<title>Node1&#45;&gt;Node12</title>
<path fill="none" stroke="midnightblue" d="M619.59,-337.15C663.01,-328.72 733.16,-314.57 793.19,-300 863.33,-282.98 944.28,-259.8 990.53,-246.21"/>
<polygon fill="midnightblue" stroke="midnightblue" points="991.53,-249.57 1000.13,-243.39 989.55,-242.85 991.53,-249.57"/>
</g>
<!-- Node13 -->
<g id="node13" class="node">
<title>Node13</title>
<g id="a_node13"><a xlink:href="../../d6/d83/bombedfield_8h.html" target="_top" xlink:title=" ">
<polygon fill="white" stroke="black" points="714.19,-224.5 714.19,-243.5 800.19,-243.5 800.19,-224.5 714.19,-224.5"/>
<text text-anchor="middle" x="757.19" y="-231.5" font-family="Helvetica,sans-Serif" font-size="10.00">bombedfield.h</text>
</a>
</g>
</g>
<!-- Node1&#45;&gt;Node13 -->
<g id="edge53" class="edge">
<title>Node1&#45;&gt;Node13</title>
<path fill="none" stroke="midnightblue" d="M592.84,-336.5C608.2,-327.54 633,-312.96 654.19,-300 682.35,-282.78 714.47,-262.4 735.24,-249.11"/>
<polygon fill="midnightblue" stroke="midnightblue" points="737.41,-251.88 743.94,-243.54 733.63,-245.98 737.41,-251.88"/>
</g>
<!-- Node14 -->
<g id="node14" class="node">
<title>Node14</title>
<g id="a_node14"><a xlink:href="../../de/df6/manaminefield_8h.html" target="_top" xlink:title=" ">
<polygon fill="white" stroke="black" points="218.69,-224.5 218.69,-243.5 317.69,-243.5 317.69,-224.5 218.69,-224.5"/>
<text text-anchor="middle" x="268.19" y="-231.5" font-family="Helvetica,sans-Serif" font-size="10.00">manaminefield.h</text>
</a>
</g>
</g>
<!-- Node1&#45;&gt;Node14 -->
<g id="edge54" class="edge">
<title>Node1&#45;&gt;Node14</title>
<path fill="none" stroke="midnightblue" d="M536.99,-344.92C486.04,-343.2 398,-334.85 332.19,-300 310.64,-288.58 291.85,-267.37 280.31,-252.29"/>
<polygon fill="midnightblue" stroke="midnightblue" points="282.83,-249.82 274.09,-243.83 277.19,-253.96 282.83,-249.82"/>
</g>
<!-- Node15 -->
<g id="node15" class="node">
<title>Node15</title>
<g id="a_node15"><a xlink:href="../../de/d6a/shieldedfield_8h.html" target="_top" xlink:title=" ">
<polygon fill="white" stroke="black" points="494.19,-224.5 494.19,-243.5 582.19,-243.5 582.19,-224.5 494.19,-224.5"/>
<text text-anchor="middle" x="538.19" y="-231.5" font-family="Helvetica,sans-Serif" font-size="10.00">shieldedfield.h</text>
</a>
</g>
</g>
<!-- Node1&#45;&gt;Node15 -->
<g id="edge55" class="edge">
<title>Node1&#45;&gt;Node15</title>
<path fill="none" stroke="midnightblue" d="M575.06,-336.37C568.57,-318.54 553.57,-277.3 544.84,-253.27"/>
<polygon fill="midnightblue" stroke="midnightblue" points="548.03,-251.79 541.32,-243.59 541.45,-254.19 548.03,-251.79"/>
</g>
<!-- Node16 -->
<g id="node16" class="node">
<title>Node16</title>
<g id="a_node16"><a xlink:href="../../db/d95/hospitalfield_8h.html" target="_top" xlink:title=" ">
<polygon fill="white" stroke="black" points="76.19,-224.5 76.19,-243.5 162.19,-243.5 162.19,-224.5 76.19,-224.5"/>
<text text-anchor="middle" x="119.19" y="-231.5" font-family="Helvetica,sans-Serif" font-size="10.00">hospitalfield.h</text>
</a>
</g>
</g>
<!-- Node1&#45;&gt;Node16 -->
<g id="edge62" class="edge">
<title>Node1&#45;&gt;Node16</title>
<path fill="none" stroke="midnightblue" d="M537.17,-344.13C447.74,-341.64 238.29,-332.42 176.19,-300 155.48,-289.19 138.88,-267.48 129.05,-252.14"/>
<polygon fill="midnightblue" stroke="midnightblue" points="132.02,-250.28 123.83,-243.56 126.04,-253.92 132.02,-250.28"/>
</g>
<!-- Node18 -->
<g id="node18" class="node">
<title>Node18</title>
<g id="a_node18"><a xlink:href="../../db/d5d/burnedfield_8h.html" target="_top" xlink:title=" ">
<polygon fill="white" stroke="black" points="1074.19,-224.5 1074.19,-243.5 1154.19,-243.5 1154.19,-224.5 1074.19,-224.5"/>
<text text-anchor="middle" x="1114.19" y="-231.5" font-family="Helvetica,sans-Serif" font-size="10.00">burnedfield.h</text>
</a>
</g>
</g>
<!-- Node1&#45;&gt;Node18 -->
<g id="edge56" class="edge">
<title>Node1&#45;&gt;Node18</title>
<path fill="none" stroke="midnightblue" d="M619.21,-338.91C671.43,-330.96 764.33,-316.13 843.19,-300 924.69,-283.33 1018.94,-259.73 1072.07,-246.03"/>
<polygon fill="midnightblue" stroke="midnightblue" points="1073.01,-249.41 1081.81,-243.51 1071.26,-242.63 1073.01,-249.41"/>
</g>
<!-- Node19 -->
<g id="node19" class="node">
<title>Node19</title>
<g id="a_node19"><a xlink:title=" ">
<polygon fill="white" stroke="#bfbfbf" points="1210.19,-280.5 1210.19,-299.5 1274.19,-299.5 1274.19,-280.5 1210.19,-280.5"/>
<text text-anchor="middle" x="1242.19" y="-287.5" font-family="Helvetica,sans-Serif" font-size="10.00">algorithm</text>
</a>
</g>
</g>
<!-- Node1&#45;&gt;Node19 -->
<g id="edge66" class="edge">
<title>Node1&#45;&gt;Node19</title>
<path fill="none" stroke="midnightblue" d="M619.23,-343.72C718.62,-340.25 980.01,-328.91 1196.19,-300 1197.47,-299.83 1198.75,-299.65 1200.05,-299.45"/>
<polygon fill="midnightblue" stroke="midnightblue" points="1200.81,-302.88 1210.11,-297.79 1199.67,-295.97 1200.81,-302.88"/>
</g>
<!-- Node2&#45;&gt;Node3 -->
<g id="edge2" class="edge">
<title>Node2&#45;&gt;Node3</title>
<path fill="none" stroke="midnightblue" d="M645.87,-283.83C686.33,-277.31 753.86,-264.41 809.19,-244 827.1,-237.39 830,-232.29 847.19,-224 883.05,-206.72 901.83,-216.91 929.19,-188 970.18,-144.69 966.11,-114.21 953.19,-56 951.07,-46.43 946.69,-36.48 942.47,-28.37"/>
<polygon fill="midnightblue" stroke="midnightblue" points="945.49,-26.6 937.58,-19.56 939.37,-30 945.49,-26.6"/>
</g>
<!-- Node2&#45;&gt;Node4 -->
<g id="edge3" class="edge">
<title>Node2&#45;&gt;Node4</title>
<path fill="none" stroke="midnightblue" d="M583.47,-280.49C557.9,-272.08 518.41,-258.42 485.19,-244 467.33,-236.24 463.78,-232.38 446.19,-224 422.17,-212.55 394.53,-200.42 374.08,-191.64"/>
<polygon fill="midnightblue" stroke="midnightblue" points="375.24,-188.33 364.67,-187.62 372.49,-194.77 375.24,-188.33"/>
</g>
<!-- Node2&#45;&gt;Node6 -->
<g id="edge23" class="edge">
<title>Node2&#45;&gt;Node6</title>
<path fill="none" stroke="midnightblue" d="M609.81,-280.41C608.79,-266.93 605.03,-240.63 591.19,-224 548.76,-172.98 474.07,-145.11 428.95,-132.19"/>
<polygon fill="midnightblue" stroke="midnightblue" points="429.82,-128.8 419.25,-129.51 427.96,-135.54 429.82,-128.8"/>
</g>
<!-- Node2&#45;&gt;Node7 -->
<g id="edge20" class="edge">
<title>Node2&#45;&gt;Node7</title>
<path fill="none" stroke="midnightblue" d="M610.47,-280.3C611.5,-247.63 615.15,-131.87 616.6,-85.96"/>
<polygon fill="midnightblue" stroke="midnightblue" points="620.1,-85.99 616.91,-75.88 613.1,-85.77 620.1,-85.99"/>
</g>
<!-- Node2&#45;&gt;Node8 -->
<g id="edge12" class="edge">
<title>Node2&#45;&gt;Node8</title>
<path fill="none" stroke="midnightblue" d="M577.87,-280.44C542.6,-271.11 486.04,-256.13 447.55,-245.95"/>
<polygon fill="midnightblue" stroke="midnightblue" points="448.26,-242.51 437.7,-243.34 446.47,-249.28 448.26,-242.51"/>
</g>
<!-- Node2&#45;&gt;Node9 -->
<g id="edge17" class="edge">
<title>Node2&#45;&gt;Node9</title>
<path fill="none" stroke="midnightblue" d="M574.59,-288.61C488.77,-287.13 263.74,-280 67.62,-243.64"/>
<polygon fill="midnightblue" stroke="midnightblue" points="68.19,-240.18 57.71,-241.77 66.89,-247.06 68.19,-240.18"/>
</g>
<!-- Node2&#45;&gt;Node10 -->
<g id="edge21" class="edge">
<title>Node2&#45;&gt;Node10</title>
<path fill="none" stroke="midnightblue" d="M645.99,-282.17C691.58,-273.45 772.79,-257.83 842.19,-244 843.44,-243.75 844.71,-243.5 845.99,-243.24"/>
<polygon fill="midnightblue" stroke="midnightblue" points="846.8,-246.65 855.91,-241.24 845.41,-239.79 846.8,-246.65"/>
</g>
<!-- Node2&#45;&gt;Node11 -->
<g id="edge22" class="edge">
<title>Node2&#45;&gt;Node11</title>
<path fill="none" stroke="midnightblue" d="M645.87,-285.37C702.76,-279.26 817.62,-265.63 924.5,-243.9"/>
<polygon fill="midnightblue" stroke="midnightblue" points="925.4,-247.29 934.49,-241.84 923.99,-240.44 925.4,-247.29"/>
</g>
<!-- Node2&#45;&gt;Node12 -->
<g id="edge24" class="edge">
<title>Node2&#45;&gt;Node12</title>
<path fill="none" stroke="midnightblue" d="M645.86,-286.24C711.91,-280.81 857.82,-267.36 990.09,-244.01"/>
<polygon fill="midnightblue" stroke="midnightblue" points="990.76,-247.44 999.99,-242.23 989.53,-240.55 990.76,-247.44"/>
</g>
<!-- Node2&#45;&gt;Node13 -->
<g id="edge25" class="edge">
<title>Node2&#45;&gt;Node13</title>
<path fill="none" stroke="midnightblue" d="M633.49,-280.44C658,-271.44 696.79,-257.19 724.39,-247.05"/>
<polygon fill="midnightblue" stroke="midnightblue" points="725.83,-250.25 734.01,-243.52 723.42,-243.68 725.83,-250.25"/>
</g>
<!-- Node2&#45;&gt;Node14 -->
<g id="edge31" class="edge">
<title>Node2&#45;&gt;Node14</title>
<path fill="none" stroke="midnightblue" d="M574.56,-283.37C516.1,-274.14 399.22,-255.69 327.93,-244.43"/>
<polygon fill="midnightblue" stroke="midnightblue" points="328.18,-240.93 317.76,-242.83 327.09,-247.84 328.18,-240.93"/>
</g>
<!-- Node2&#45;&gt;Node15 -->
<g id="edge36" class="edge">
<title>Node2&#45;&gt;Node15</title>
<path fill="none" stroke="midnightblue" d="M598.63,-280.32C587.77,-272.18 571.31,-259.84 558.31,-250.09"/>
<polygon fill="midnightblue" stroke="midnightblue" points="560.07,-247.03 549.97,-243.83 555.87,-252.63 560.07,-247.03"/>
</g>
<!-- Node2&#45;&gt;Node16 -->
<g id="edge41" class="edge">
<title>Node2&#45;&gt;Node16</title>
<path fill="none" stroke="midnightblue" d="M574.49,-285.07C489.15,-275.69 272.98,-251.91 172.3,-240.84"/>
<polygon fill="midnightblue" stroke="midnightblue" points="172.67,-237.36 162.35,-239.75 171.91,-244.32 172.67,-237.36"/>
</g>
<!-- Node17 -->
<g id="node17" class="node">
<title>Node17</title>
<g id="a_node17"><a xlink:href="../../da/db9/infantry_8h.html" target="_top" xlink:title=" ">
<polygon fill="white" stroke="black" points="690.19,-168.5 690.19,-187.5 752.19,-187.5 752.19,-168.5 690.19,-168.5"/>
<text text-anchor="middle" x="721.19" y="-175.5" font-family="Helvetica,sans-Serif" font-size="10.00">infantry.h</text>
</a>
</g>
</g>
<!-- Node2&#45;&gt;Node17 -->
<g id="edge46" class="edge">
<title>Node2&#45;&gt;Node17</title>
<path fill="none" stroke="midnightblue" d="M620.88,-280.39C631.63,-271.59 648.53,-257.35 662.19,-244 678.29,-228.28 695.45,-209.07 707.09,-195.62"/>
<polygon fill="midnightblue" stroke="midnightblue" points="710.02,-197.59 713.87,-187.72 704.7,-193.03 710.02,-197.59"/>
</g>
<!-- Node4&#45;&gt;Node3 -->
<g id="edge5" class="edge">
<title>Node4&#45;&gt;Node3</title>
<path fill="none" stroke="midnightblue" d="M342.94,-168.31C341.49,-154.68 340.8,-128.18 354.19,-112 401.7,-54.61 439.55,-72.53 512.19,-56 653.33,-23.89 826.49,-14.55 898.4,-11.95"/>
<polygon fill="midnightblue" stroke="midnightblue" points="898.78,-15.44 908.66,-11.6 898.55,-8.44 898.78,-15.44"/>
</g>
<!-- Node5 -->
<g id="node5" class="node">
<title>Node5</title>
<g id="a_node5"><a xlink:title=" ">
<polygon fill="white" stroke="#bfbfbf" points="218.19,-0.5 218.19,-19.5 262.19,-19.5 262.19,-0.5 218.19,-0.5"/>
<text text-anchor="middle" x="240.19" y="-7.5" font-family="Helvetica,sans-Serif" font-size="10.00">string</text>
</a>
</g>
</g>
<!-- Node4&#45;&gt;Node5 -->
<g id="edge4" class="edge">
<title>Node4&#45;&gt;Node5</title>
<path fill="none" stroke="midnightblue" d="M327.53,-168.4C313.88,-160.58 294.96,-147.85 283.19,-132 259.81,-100.48 248.25,-55.09 243.32,-29.82"/>
<polygon fill="midnightblue" stroke="midnightblue" points="246.72,-28.96 241.49,-19.74 239.83,-30.2 246.72,-28.96"/>
</g>
<!-- Node4&#45;&gt;Node6 -->
<g id="edge6" class="edge">
<title>Node4&#45;&gt;Node6</title>
<path fill="none" stroke="midnightblue" d="M351.96,-168.08C358.73,-160.3 368.74,-148.8 376.95,-139.37"/>
<polygon fill="midnightblue" stroke="midnightblue" points="379.65,-141.59 383.58,-131.75 374.37,-137 379.65,-141.59"/>
</g>
<!-- Node6&#45;&gt;Node3 -->
<g id="edge8" class="edge">
<title>Node6&#45;&gt;Node3</title>
<path fill="none" stroke="midnightblue" d="M412.45,-112.41C447.88,-98.43 521.5,-70.84 586.19,-56 698.94,-30.13 836,-17.82 898.37,-13.23"/>
<polygon fill="midnightblue" stroke="midnightblue" points="898.7,-16.71 908.42,-12.51 898.2,-9.73 898.7,-16.71"/>
</g>
<!-- Node6&#45;&gt;Node5 -->
<g id="edge7" class="edge">
<title>Node6&#45;&gt;Node5</title>
<path fill="none" stroke="midnightblue" d="M379.35,-112.37C353.54,-93.57 292.04,-48.77 260.15,-25.53"/>
<polygon fill="midnightblue" stroke="midnightblue" points="262.13,-22.65 251.99,-19.59 258.01,-28.31 262.13,-22.65"/>
</g>
<!-- Node6&#45;&gt;Node7 -->
<g id="edge9" class="edge">
<title>Node6&#45;&gt;Node7</title>
<path fill="none" stroke="midnightblue" d="M419.36,-114.27C461.54,-104.19 540.86,-85.24 585.18,-74.65"/>
<polygon fill="midnightblue" stroke="midnightblue" points="586.21,-78 595.13,-72.27 584.59,-71.19 586.21,-78"/>
</g>
<!-- Node7&#45;&gt;Node3 -->
<g id="edge11" class="edge">
<title>Node7&#45;&gt;Node3</title>
<path fill="none" stroke="midnightblue" d="M639.34,-61.2C693.6,-51.9 833.43,-27.93 898.26,-16.82"/>
<polygon fill="midnightblue" stroke="midnightblue" points="899.1,-20.22 908.36,-15.09 897.91,-13.33 899.1,-20.22"/>
</g>
<!-- Node7&#45;&gt;Node5 -->
<g id="edge10" class="edge">
<title>Node7&#45;&gt;Node5</title>
<path fill="none" stroke="midnightblue" d="M595.02,-61.82C531.38,-52.71 347.95,-26.43 272.85,-15.68"/>
<polygon fill="midnightblue" stroke="midnightblue" points="272.97,-12.16 262.58,-14.21 271.98,-19.09 272.97,-12.16"/>
</g>
<!-- Node8&#45;&gt;Node4 -->
<g id="edge13" class="edge">
<title>Node8&#45;&gt;Node4</title>
<path fill="none" stroke="midnightblue" d="M396.23,-224.32C387.07,-216.34 373.26,-204.31 362.17,-194.65"/>
<polygon fill="midnightblue" stroke="midnightblue" points="364.18,-191.76 354.34,-187.83 359.58,-197.04 364.18,-191.76"/>
</g>
<!-- Node8&#45;&gt;Node5 -->
<g id="edge16" class="edge">
<title>Node8&#45;&gt;Node5</title>
<path fill="none" stroke="midnightblue" d="M380.13,-224.49C359.91,-217.02 331.93,-204.74 311.19,-188 266.41,-151.85 259.49,-132 246.19,-76 242.55,-60.65 241.09,-42.77 240.53,-29.66"/>
<polygon fill="midnightblue" stroke="midnightblue" points="244.02,-29.43 240.22,-19.54 237.02,-29.64 244.02,-29.43"/>
</g>
<!-- Node8&#45;&gt;Node6 -->
<g id="edge15" class="edge">
<title>Node8&#45;&gt;Node6</title>
<path fill="none" stroke="midnightblue" d="M405.02,-224.37C402.6,-206.62 397.01,-165.67 393.73,-141.6"/>
<polygon fill="midnightblue" stroke="midnightblue" points="397.19,-141.03 392.37,-131.59 390.25,-141.97 397.19,-141.03"/>
</g>
<!-- Node8&#45;&gt;Node7 -->
<g id="edge14" class="edge">
<title>Node8&#45;&gt;Node7</title>
<path fill="none" stroke="midnightblue" d="M417.24,-224.31C451.35,-197.47 555.3,-115.69 598.28,-81.88"/>
<polygon fill="midnightblue" stroke="midnightblue" points="600.56,-84.54 606.26,-75.61 596.23,-79.04 600.56,-84.54"/>
</g>
<!-- Node9&#45;&gt;Node4 -->
<g id="edge18" class="edge">
<title>Node9&#45;&gt;Node4</title>
<path fill="none" stroke="midnightblue" d="M57.76,-226.45C60.9,-225.56 64.12,-224.71 67.19,-224 154.03,-204.01 258.18,-189.61 310.58,-183.02"/>
<polygon fill="midnightblue" stroke="midnightblue" points="311.15,-186.48 320.65,-181.77 310.29,-179.53 311.15,-186.48"/>
</g>
<!-- Node9&#45;&gt;Node5 -->
<g id="edge19" class="edge">
<title>Node9&#45;&gt;Node5</title>
<path fill="none" stroke="midnightblue" d="M34.58,-224.12C26.72,-195.31 6.49,-103.61 52.19,-56 73.42,-33.88 160.09,-20.42 207.99,-14.52"/>
<polygon fill="midnightblue" stroke="midnightblue" points="208.63,-17.97 218.15,-13.31 207.81,-11.01 208.63,-17.97"/>
</g>
<!-- Node13&#45;&gt;Node3 -->
<g id="edge30" class="edge">
<title>Node13&#45;&gt;Node3</title>
<path fill="none" stroke="midnightblue" d="M800.46,-225.48C839.92,-217.71 894.14,-204.42 908.19,-188 947.14,-142.51 940.99,-64.94 935.61,-29.57"/>
<polygon fill="midnightblue" stroke="midnightblue" points="939.06,-28.94 933.95,-19.66 932.15,-30.1 939.06,-28.94"/>
</g>
<!-- Node13&#45;&gt;Node4 -->
<g id="edge26" class="edge">
<title>Node13&#45;&gt;Node4</title>
<path fill="none" stroke="midnightblue" d="M714.17,-227.37C631.66,-216.59 452.77,-193.2 378.06,-183.43"/>
<polygon fill="midnightblue" stroke="midnightblue" points="378.18,-179.91 367.81,-182.09 377.27,-186.85 378.18,-179.91"/>
</g>
<!-- Node13&#45;&gt;Node5 -->
<g id="edge29" class="edge">
<title>Node13&#45;&gt;Node5</title>
<path fill="none" stroke="midnightblue" d="M763.65,-224.17C771.97,-211.67 784.64,-188.1 778.19,-168 754.92,-95.37 720.26,-80.95 648.19,-56 578.76,-31.97 356.46,-17.45 272.61,-12.72"/>
<polygon fill="midnightblue" stroke="midnightblue" points="272.59,-9.21 262.41,-12.15 272.2,-16.2 272.59,-9.21"/>
</g>
<!-- Node13&#45;&gt;Node6 -->
<g id="edge28" class="edge">
<title>Node13&#45;&gt;Node6</title>
<path fill="none" stroke="midnightblue" d="M733.34,-224.49C696.74,-211.57 624.44,-186.54 562.19,-168 516.81,-154.48 464.02,-140.91 429.24,-132.26"/>
<polygon fill="midnightblue" stroke="midnightblue" points="430.04,-128.86 419.49,-129.85 428.36,-135.65 430.04,-128.86"/>
</g>
<!-- Node13&#45;&gt;Node7 -->
<g id="edge27" class="edge">
<title>Node13&#45;&gt;Node7</title>
<path fill="none" stroke="midnightblue" d="M760.25,-224.12C764.17,-211.16 769.53,-186.56 761.19,-168 740.1,-121.02 684.3,-92.11 648.68,-77.84"/>
<polygon fill="midnightblue" stroke="midnightblue" points="649.81,-74.53 639.22,-74.21 647.3,-81.06 649.81,-74.53"/>
</g>
<!-- Node14&#45;&gt;Node4 -->
<g id="edge32" class="edge">
<title>Node14&#45;&gt;Node4</title>
<path fill="none" stroke="midnightblue" d="M280.41,-224.32C291.97,-216.11 309.57,-203.6 323.36,-193.81"/>
<polygon fill="midnightblue" stroke="midnightblue" points="325.64,-196.48 331.76,-187.83 321.58,-190.77 325.64,-196.48"/>
</g>
<!-- Node14&#45;&gt;Node5 -->
<g id="edge35" class="edge">
<title>Node14&#45;&gt;Node5</title>
<path fill="none" stroke="midnightblue" d="M218.38,-227.39C170.82,-220.89 104.1,-208.38 88.19,-188 52.09,-141.76 53.09,-103 88.19,-56 115.66,-19.23 171.83,-11.27 207.67,-10.19"/>
<polygon fill="midnightblue" stroke="midnightblue" points="208.13,-13.68 218.08,-10.05 208.03,-6.68 208.13,-13.68"/>
</g>
<!-- Node14&#45;&gt;Node6 -->
<g id="edge33" class="edge">
<title>Node14&#45;&gt;Node6</title>
<path fill="none" stroke="midnightblue" d="M272.16,-224.49C278.73,-211.12 292.97,-184.96 311.19,-168 325.59,-154.61 344.69,-143.67 360.62,-135.93"/>
<polygon fill="midnightblue" stroke="midnightblue" points="362.47,-138.93 370.06,-131.54 359.52,-132.59 362.47,-138.93"/>
</g>
<!-- Node14&#45;&gt;Node7 -->
<g id="edge34" class="edge">
<title>Node14&#45;&gt;Node7</title>
<path fill="none" stroke="midnightblue" d="M269.8,-224.38C272.54,-211.3 279.04,-186.08 291.19,-168 312.1,-136.92 320.43,-128.23 354.19,-112 431.18,-75 533.7,-67.95 585.04,-66.91"/>
<polygon fill="midnightblue" stroke="midnightblue" points="585.24,-70.41 595.19,-66.77 585.14,-63.41 585.24,-70.41"/>
</g>
<!-- Node15&#45;&gt;Node4 -->
<g id="edge37" class="edge">
<title>Node15&#45;&gt;Node4</title>
<path fill="none" stroke="midnightblue" d="M507.45,-224.44C472,-214.58 413.94,-198.41 377.45,-188.26"/>
<polygon fill="midnightblue" stroke="midnightblue" points="378.35,-184.87 367.77,-185.56 376.47,-191.62 378.35,-184.87"/>
</g>
<!-- Node15&#45;&gt;Node5 -->
<g id="edge40" class="edge">
<title>Node15&#45;&gt;Node5</title>
<path fill="none" stroke="midnightblue" d="M530.18,-224.16C518.84,-211.66 497.44,-188.07 479.19,-168 456.55,-143.09 454.46,-133.05 428.19,-112 389.05,-80.63 374.42,-79.67 330.19,-56 309.27,-44.8 285.21,-32.82 267.24,-24.03"/>
<polygon fill="midnightblue" stroke="midnightblue" points="268.46,-20.74 257.93,-19.51 265.39,-27.03 268.46,-20.74"/>
</g>
<!-- Node15&#45;&gt;Node6 -->
<g id="edge39" class="edge">
<title>Node15&#45;&gt;Node6</title>
<path fill="none" stroke="midnightblue" d="M526.66,-224.37C501.65,-205.65 442.18,-161.15 411.02,-137.83"/>
<polygon fill="midnightblue" stroke="midnightblue" points="412.78,-134.78 402.68,-131.59 408.59,-140.39 412.78,-134.78"/>
</g>
<!-- Node15&#45;&gt;Node7 -->
<g id="edge38" class="edge">
<title>Node15&#45;&gt;Node7</title>
<path fill="none" stroke="midnightblue" d="M542.44,-224.08C554.99,-197.72 592.03,-119.88 608.79,-84.66"/>
<polygon fill="midnightblue" stroke="midnightblue" points="611.98,-86.1 613.12,-75.57 605.66,-83.09 611.98,-86.1"/>
</g>
<!-- Node16&#45;&gt;Node4 -->
<g id="edge42" class="edge">
<title>Node16&#45;&gt;Node4</title>
<path fill="none" stroke="midnightblue" d="M154.85,-224.44C197.57,-214.19 268.62,-197.14 310.47,-187.09"/>
<polygon fill="midnightblue" stroke="midnightblue" points="311.54,-190.44 320.44,-184.7 309.9,-183.63 311.54,-190.44"/>
</g>
<!-- Node16&#45;&gt;Node5 -->
<g id="edge45" class="edge">
<title>Node16&#45;&gt;Node5</title>
<path fill="none" stroke="midnightblue" d="M106.16,-224.2C95.16,-216.09 79.87,-203.04 71.19,-188 41.9,-137.17 30.38,-98.14 71.19,-56 107.11,-18.92 169.86,-11.24 207.96,-10.27"/>
<polygon fill="midnightblue" stroke="midnightblue" points="208.05,-13.77 218.01,-10.15 207.97,-6.77 208.05,-13.77"/>
</g>
<!-- Node16&#45;&gt;Node6 -->
<g id="edge44" class="edge">
<title>Node16&#45;&gt;Node6</title>
<path fill="none" stroke="midnightblue" d="M132.9,-224.44C154.87,-210.99 199.63,-184.73 240.19,-168 277.57,-152.58 322.12,-139.97 353.1,-132.06"/>
<polygon fill="midnightblue" stroke="midnightblue" points="354.21,-135.39 363.06,-129.56 352.5,-128.6 354.21,-135.39"/>
</g>
<!-- Node16&#45;&gt;Node7 -->
<g id="edge43" class="edge">
<title>Node16&#45;&gt;Node7</title>
<path fill="none" stroke="midnightblue" d="M127.9,-224.11C141.39,-210.69 168.57,-185.02 195.19,-168 245.46,-135.86 260.02,-129.04 317.19,-112 411.83,-83.8 528.77,-72.77 584.58,-68.88"/>
<polygon fill="midnightblue" stroke="midnightblue" points="585.15,-72.35 594.9,-68.2 584.69,-65.37 585.15,-72.35"/>
</g>
<!-- Node17&#45;&gt;Node7 -->
<g id="edge47" class="edge">
<title>Node17&#45;&gt;Node7</title>
<path fill="none" stroke="midnightblue" d="M716.41,-168.37C708.91,-155.3 693.45,-130.07 676.19,-112 665.13,-100.42 650.9,-89.47 639.19,-81.28"/>
<polygon fill="midnightblue" stroke="midnightblue" points="641.05,-78.31 630.82,-75.58 637.12,-84.1 641.05,-78.31"/>
</g>
<!-- Node18&#45;&gt;Node3 -->
<g id="edge61" class="edge">
<title>Node18&#45;&gt;Node3</title>
<path fill="none" stroke="midnightblue" d="M1112.88,-224.34C1108.2,-196.23 1089.76,-106.43 1039.19,-56 1019.18,-36.04 988.98,-24.45 965.77,-18.04"/>
<polygon fill="midnightblue" stroke="midnightblue" points="966.53,-14.62 955.97,-15.53 964.79,-21.4 966.53,-14.62"/>
</g>
<!-- Node18&#45;&gt;Node4 -->
<g id="edge57" class="edge">
<title>Node18&#45;&gt;Node4</title>
<path fill="none" stroke="midnightblue" d="M1074.14,-225.24C1071.12,-224.78 1068.11,-224.36 1065.19,-224 801.89,-191.72 481.49,-182.06 378.09,-179.68"/>
<polygon fill="midnightblue" stroke="midnightblue" points="378.02,-176.18 367.94,-179.45 377.86,-183.18 378.02,-176.18"/>
</g>
<!-- Node18&#45;&gt;Node5 -->
<g id="edge60" class="edge">
<title>Node18&#45;&gt;Node5</title>
<path fill="none" stroke="midnightblue" d="M1098.43,-224.46C1074.22,-211.5 1026.26,-186.42 984.19,-168 855.35,-111.59 825.12,-88.19 688.19,-56 535.52,-20.11 346.99,-12.83 272.57,-11.37"/>
<polygon fill="midnightblue" stroke="midnightblue" points="272.5,-7.87 262.44,-11.19 272.38,-14.86 272.5,-7.87"/>
</g>
<!-- Node18&#45;&gt;Node6 -->
<g id="edge59" class="edge">
<title>Node18&#45;&gt;Node6</title>
<path fill="none" stroke="midnightblue" d="M1074.1,-225.56C1071.09,-225.03 1068.09,-224.5 1065.19,-224 966.26,-206.93 940.57,-208.05 842.19,-188 805.86,-180.59 797.67,-174.7 761.19,-168 640.97,-145.93 496.72,-131.93 429.35,-126.11"/>
<polygon fill="midnightblue" stroke="midnightblue" points="429.48,-122.6 419.22,-125.24 428.88,-129.58 429.48,-122.6"/>
</g>
<!-- Node18&#45;&gt;Node7 -->
<g id="edge58" class="edge">
<title>Node18&#45;&gt;Node7</title>
<path fill="none" stroke="midnightblue" d="M1088.52,-224.42C1004.89,-196.49 740.44,-108.17 648.82,-77.56"/>
<polygon fill="midnightblue" stroke="midnightblue" points="649.85,-74.22 639.26,-74.37 647.63,-80.86 649.85,-74.22"/>
</g>
</g>
</svg>
        <g id="navigator" transform="translate(0 0)" fill="#404254">
                <rect fill="#f2f5e9" fill-opacity="0.5" stroke="#606060" stroke-width=".5" x="0" y="0" width="60" height="60"/>
                <use id="zoomplus" xlink:href="#zoomPlus" x="17" y="9" onmousedown="handleZoom(evt,'in')"/>
                <use id="zoomminus" xlink:href="#zoomMin" x="42" y="9" onmousedown="handleZoom(evt,'out')"/>
                <use id="reset" xlink:href="#resetDef" x="30" y="36" onmousedown="handleReset()"/>
                <g id="arrowUp" xlink:href="#dirArrow" transform="translate(30 24)" onmousedown="handlePan(0,-1)">
                  <use xlink:href="#rim" fill="#404040">
                        <set attributeName="fill" to="#808080" begin="arrowUp.mouseover" end="arrowUp.mouseout"/>
                  </use>
                  <path fill="none" stroke="white" stroke-width="1.5" d="M0,-3.0v7 M-2.5,-0.5L0,-3.0L2.5,-0.5"/>
                </g>
                <g id="arrowRight" xlink:href="#dirArrow" transform="rotate(90) translate(36 -43)" onmousedown="handlePan(1,0)">
                  <use xlink:href="#rim" fill="#404040">
                        <set attributeName="fill" to="#808080" begin="arrowRight.mouseover" end="arrowRight.mouseout"/>
                  </use>
                  <path fill="none" stroke="white" stroke-width="1.5" d="M0,-3.0v7 M-2.5,-0.5L0,-3.0L2.5,-0.5"/>
                </g>
                <g id="arrowDown" xlink:href="#dirArrow" transform="rotate(180) translate(-30 -48)" onmousedown="handlePan(0,1)">
                  <use xlink:href="#rim" fill="#404040">
                        <set attributeName="fill" to="#808080" begin="arrowDown.mouseover" end="arrowDown.mouseout"/>
                  </use>
                  <path fill="none" stroke="white" stroke-width="1.5" d="M0,-3.0v7 M-2.5,-0.5L0,-3.0L2.5,-0.5"/>
                </g>
                <g id="arrowLeft" xlink:href="#dirArrow" transform="rotate(270) translate(-36 17)" onmousedown="handlePan(-1,0)">
                  <use xlink:href="#rim" fill="#404040">
                        <set attributeName="fill" to="#808080" begin="arrowLeft.mouseover" end="arrowLeft.mouseout"/>
                  </use>
                  <path fill="none" stroke="white" stroke-width="1.5" d="M0,-3.0v7 M-2.5,-0.5L0,-3.0L2.5,-0.5"/>
                </g>
        </g>
        <svg viewBox="0 0 15 15" width="100%" height="30px" preserveAspectRatio="xMaxYMin meet">
         <g id="arrow_out" transform="scale(0.3 0.3)">
          <a xlink:href="functions_8cpp__incl_org.svg" target="_base">
           <rect id="button" ry="5" rx="5" y="6" x="6" height="38" width="38"
                fill="#f2f5e9" fill-opacity="0.5" stroke="#606060" stroke-width="1.0"/>
           <path id="arrow"
             d="M 11.500037,31.436501 C 11.940474,20.09759 22.043105,11.32322 32.158766,21.979434 L 37.068811,17.246167 C 37.068811,17.246167 37.088388,32 37.088388,32 L 22.160133,31.978069 C 22.160133,31.978069 26.997745,27.140456 26.997745,27.140456 C 18.528582,18.264221 13.291696,25.230495 11.500037,31.436501 z"
             style="fill:#404040;"/>
          </a>
         </g>
        </svg>
</svg>
